<?xml version="1.0"?>
<svg xmlns="http://www.w3.org/2000/svg" xmlns:xlink="http://www.w3.org/1999/xlink" height='150px' version="1.1" 
	viewBox="0 0 32 32" style="enable-background:new 0 0 32 32;" xml:space="preserve"><style type="text/css">
	.st0{display:none;}
	.st1{display:inline;}
	.st2{fill:#FFA26B;}
	.st3{fill:#FFFFFF;}
	.st4{fill:#1CAF82;}
</style><g id="Layer_1" class="st0"/><g id="Layer_2"/><g id="Layer_3"/><g id="Layer_4"/><g id="Layer_5"/><g id="Layer_6"/><g id="Layer_7"/><g id="Layer_8"/><g id="Layer_9"><circle class="st2" cx="16" cy="16" r="7.03"/><path class="st4" d="M15.796,16.878c0.848,0.193,1.01,0.407,1.017,0.407c-0.009,0.282-0.674,0.462-1.371,0.505   c-0.078-0.418-0.444-0.734-0.885-0.734c-0.497,0-0.9,0.403-0.9,0.9c0,0.449,0.178,0.867,0.5,1.179   c0.255,0.247,0.589,0.397,0.939,0.442v0.003c0,0.497,0.403,0.9,0.9,0.9s0.9-0.403,0.9-0.9v-0.23   c1.478-0.476,1.702-1.513,1.715-2.02c0.02-0.752-0.384-1.746-2.417-2.208c-0.866-0.197-1.001-0.39-1.008-0.403   c0.021-0.318,0.715-0.469,1.36-0.509c0.078,0.418,0.444,0.734,0.885,0.734c0.497,0,0.9-0.403,0.9-0.9   c0-0.443-0.184-0.875-0.502-1.182c-0.259-0.249-0.589-0.394-0.934-0.439v-0.004c0-0.497-0.403-0.9-0.9-0.9s-0.9,0.403-0.9,0.9   v0.233c-1.356,0.437-1.665,1.348-1.706,1.945C13.314,15.729,14.123,16.497,15.796,16.878z"/><path class="st4" d="M16,23.93c4.372,0,7.93-3.557,7.93-7.93S20.372,8.07,16,8.07c-4.373,0-7.93,3.557-7.93,7.93   S11.627,23.93,16,23.93z M16,9.87c3.38,0,6.129,2.75,6.129,6.13S19.38,22.13,16,22.13S9.87,19.38,9.87,16S12.62,9.87,16,9.87z"/><path class="st4" d="M28.446,18.164c-0.481-0.117-0.97,0.177-1.088,0.66c-0.504,2.057-1.568,3.943-3.08,5.455   c-2.211,2.21-5.15,3.428-8.278,3.428s-6.068-1.218-8.278-3.429c-0.861-0.861-1.569-1.832-2.117-2.893l1.375,0.482   c0.469,0.165,0.983-0.082,1.147-0.551c0.165-0.469-0.083-0.983-0.551-1.147l-3.351-1.174c-0.237-0.084-0.496-0.064-0.717,0.053   c-0.221,0.117-0.384,0.32-0.449,0.562l-0.927,3.428c-0.13,0.48,0.154,0.974,0.634,1.104C2.844,24.163,2.923,24.173,3,24.173   c0.396,0,0.76-0.264,0.868-0.666l0.281-1.038c0.613,1.124,1.377,2.16,2.3,3.082C9,28.103,12.391,29.507,16,29.507   c3.608,0,7.001-1.405,9.552-3.956c1.744-1.745,2.974-3.923,3.555-6.3C29.225,18.769,28.929,18.282,28.446,18.164z"/><path class="st4" d="M29.235,7.859c-0.48-0.132-0.975,0.153-1.104,0.634L27.85,9.53c-0.613-1.124-1.377-2.16-2.299-3.082   C23.001,3.897,19.608,2.493,16,2.493c-3.609,0-7,1.405-9.551,3.956c-1.744,1.744-2.973,3.922-3.556,6.299   c-0.118,0.483,0.177,0.97,0.66,1.088c0.072,0.018,0.144,0.026,0.215,0.026c0.405,0,0.773-0.275,0.874-0.686   c0.504-2.058,1.569-3.944,3.08-5.456c2.21-2.21,5.15-3.428,8.278-3.428s6.067,1.218,8.278,3.428   c0.861,0.861,1.568,1.832,2.117,2.893l-1.375-0.482c-0.47-0.166-0.982,0.083-1.147,0.551c-0.164,0.469,0.083,0.983,0.552,1.147   l3.351,1.174c0.097,0.034,0.197,0.051,0.298,0.051c0.145,0,0.289-0.035,0.42-0.104c0.221-0.117,0.384-0.32,0.449-0.562l0.927-3.428   C29.998,8.482,29.715,7.988,29.235,7.859z"/></g><g id="Layer_10"/><g id="Layer_11"/><g id="Layer_12"/><g id="Layer_13"/><g id="Layer_14"/><g id="Layer_15"/><g id="Layer_16"/><g id="Layer_17"/><g id="Layer_18"/><g id="Layer_19"/><g id="Layer_20"/><g id="Layer_21"/><g id="Layer_22"/><g id="Layer_23"/><g id="Layer_24"/><g id="Layer_25"/><g id="Layer_26"/></svg>