<svg id="Layer_1" data-name="Layer 1" xmlns="http://www.w3.org/2000/svg"
    xmlns:xlink="http://www.w3.org/1999/xlink" viewBox="0 0 48 48" width='32px' height='32px'>
    <defs>
        <style>
            .cls-1{fill:url(#linear-gradient);}.cls-2{fill:url(#linear-gradient-2);}.cls-3{fill:url(#linear-gradient-3);}.cls-4{fill:url(#linear-gradient-4);}.cls-5{fill:url(#linear-gradient-5);}.cls-6{fill:url(#linear-gradient-6);}.cls-7{fill:url(#linear-gradient-7);}.cls-8{fill:url(#linear-gradient-8);}.cls-9{fill:url(#linear-gradient-9);}.cls-10{fill:url(#linear-gradient-10);}.cls-11{fill:url(#linear-gradient-11);}.cls-12{fill:url(#linear-gradient-12);}.cls-13{fill:url(#linear-gradient-13);}.cls-14{fill:url(#linear-gradient-14);}.cls-15{fill:url(#linear-gradient-15);}.cls-16{fill:url(#linear-gradient-16);}.cls-17{fill:url(#linear-gradient-17);}.cls-18{fill:url(#linear-gradient-18);}.cls-19{fill:url(#linear-gradient-19);}.cls-20{fill:url(#linear-gradient-20);}.cls-21{fill:url(#linear-gradient-21);}.cls-22{fill:url(#linear-gradient-22);}.cls-23{fill:url(#linear-gradient-23);}.cls-24{fill:url(#linear-gradient-24);}.cls-25{fill:url(#linear-gradient-25);}.cls-26{fill:url(#linear-gradient-26);}.cls-27{fill:url(#linear-gradient-27);}.cls-28{fill:url(#linear-gradient-28);}.cls-29{fill:url(#linear-gradient-29);}.cls-30{fill:url(#linear-gradient-30);}.cls-31{fill:url(#linear-gradient-31);}</style>
        <linearGradient id="linear-gradient" x1="14.98" y1="47.69" x2="14.98" y2="-26.39"
            gradientUnits="userSpaceOnUse">
            <stop offset="0" stop-color="#6979f8" />
            <stop offset="0.56" stop-color="#5463d3" />
            <stop offset="1" stop-color="#3a47a8" />
        </linearGradient>
        <linearGradient id="linear-gradient-2" x1="14.98" y1="42.52" x2="14.98" y2="12.65"
            xlink:href="#linear-gradient" />
        <linearGradient id="linear-gradient-3" x1="14.98" y1="39.8" x2="14.98" y2="-8.33"
            gradientUnits="userSpaceOnUse">
            <stop offset="0" stop-color="#f3c57a" />
            <stop offset="0.49" stop-color="#f39369" />
            <stop offset="1" stop-color="#e94867" />
        </linearGradient>
        <linearGradient id="linear-gradient-4" x1="14.98" y1="31.27" x2="14.98" y2="11.18"
            xlink:href="#linear-gradient-3" />
        <linearGradient id="linear-gradient-5" x1="8.98" y1="34.83" x2="8.98" y2="15.58"
            gradientUnits="userSpaceOnUse">
            <stop offset="0" stop-color="#fff" />
            <stop offset="0.52" stop-color="#cce2e6" />
            <stop offset="1" stop-color="#8fa1bb" />
        </linearGradient>
        <linearGradient id="linear-gradient-6" x1="14.98" y1="34.83" x2="14.98" y2="15.58"
            xlink:href="#linear-gradient-5" />
        <linearGradient id="linear-gradient-7" x1="20.98" y1="34.83" x2="20.98" y2="15.58"
            xlink:href="#linear-gradient-5" />
        <linearGradient id="linear-gradient-8" x1="8.98" y1="39.33" x2="8.98" y2="20.08"
            xlink:href="#linear-gradient-5" />
        <linearGradient id="linear-gradient-9" x1="14.98" y1="39.33" x2="14.98" y2="20.08"
            xlink:href="#linear-gradient-5" />
        <linearGradient id="linear-gradient-10" x1="20.98" y1="39.33" x2="20.98" y2="20.08"
            xlink:href="#linear-gradient-5" />
        <linearGradient id="linear-gradient-11" x1="8.98" y1="43.83" x2="8.98" y2="24.58"
            xlink:href="#linear-gradient-5" />
        <linearGradient id="linear-gradient-12" x1="14.98" y1="43.83" x2="14.98" y2="24.58"
            xlink:href="#linear-gradient-5" />
        <linearGradient id="linear-gradient-13" x1="20.98" y1="42.02" x2="20.98" y2="16.56"
            xlink:href="#linear-gradient-3" />
        <linearGradient id="linear-gradient-14" x1="29.98" y1="50.93" x2="29.98" y2="-15.02"
            xlink:href="#linear-gradient-3" />
        <linearGradient id="linear-gradient-15" x1="6.29" y1="41.2" x2="32.79" y2="15.61"
            xlink:href="#linear-gradient-3" />
        <linearGradient id="linear-gradient-16" x1="29.98" y1="36.01" x2="29.98" y2="-11.67"
            xlink:href="#linear-gradient-3" />
        <linearGradient id="linear-gradient-17" x1="29.98" y1="29.97" x2="29.98" y2="-17.32"
            xlink:href="#linear-gradient-3" />
        <linearGradient id="linear-gradient-18" x1="14.84" y1="44.88" x2="31.09" y2="6.21"
            xlink:href="#linear-gradient-3" />
        <linearGradient id="linear-gradient-19" x1="29.98" y1="18.75" x2="29.98" y2="-20.29"
            xlink:href="#linear-gradient-3" />
        <linearGradient id="linear-gradient-20" x1="29.98" y1="18.75" x2="29.98" y2="-20.29"
            xlink:href="#linear-gradient-3" />
        <linearGradient id="linear-gradient-21" x1="24.61" y1="18.75" x2="24.61" y2="-20.29"
            gradientTransform="translate(9.16 -10.73) rotate(30)" xlink:href="#linear-gradient-3" />
        <linearGradient id="linear-gradient-22" x1="35.35" y1="18.75" x2="35.35" y2="-20.29"
            gradientTransform="translate(19.9 -13.61) rotate(30)" xlink:href="#linear-gradient-3" />
        <linearGradient id="linear-gradient-23" x1="20.67" y1="18.75" x2="20.67" y2="-20.29"
            gradientTransform="translate(23.89 -10.08) rotate(60)" xlink:href="#linear-gradient-3" />
        <linearGradient id="linear-gradient-24" x1="39.28" y1="18.75" x2="39.28" y2="-20.29"
            gradientTransform="translate(42.5 -20.82) rotate(60)" xlink:href="#linear-gradient-3" />
        <linearGradient id="linear-gradient-25" x1="19.24" y1="18.75" x2="19.24" y2="-20.29"
            xlink:href="#linear-gradient-3" />
        <linearGradient id="linear-gradient-26" x1="40.72" y1="18.75" x2="40.72" y2="-20.29"
            xlink:href="#linear-gradient-3" />
        <linearGradient id="linear-gradient-27" x1="20.67" y1="18.75" x2="20.67" y2="-20.29"
            gradientTransform="translate(15.97 -6.8) rotate(30)" xlink:href="#linear-gradient-3" />
        <linearGradient id="linear-gradient-28" x1="39.28" y1="18.75" x2="39.28" y2="-20.29"
            gradientTransform="translate(13.09 -17.54) rotate(30)" xlink:href="#linear-gradient-3" />
        <linearGradient id="linear-gradient-29" x1="24.61" y1="18.75" x2="24.61" y2="-20.29"
            gradientTransform="translate(38.57 -6.15) rotate(60)" xlink:href="#linear-gradient-3" />
        <linearGradient id="linear-gradient-30" x1="35.35" y1="18.75" x2="35.35" y2="-20.29"
            gradientTransform="translate(27.82 -24.76) rotate(60)" xlink:href="#linear-gradient-3" />
        <linearGradient id="linear-gradient-31" x1="29.44" y1="22.1" x2="29.44" y2="-6.66"
            xlink:href="#linear-gradient-5" />
    </defs>
    <title>bitcoin, currency, finance, calculator, calculate</title>
    <rect class="cls-1" x="2.98" y="12.02" width="24" height="30" rx="2.99" ry="2.99" />
    <rect class="cls-2" x="7.48" y="21.02" width="15" height="21" />
    <rect class="cls-3" x="7.48" y="16.52" width="15" height="7.5" rx="1.89" ry="1.89" />
    <path class="cls-4"
        d="M20.59,16.52H9.37a1.89,1.89,0,0,0-1.89,1.89v1.5A1.89,1.89,0,0,1,9.37,18H20.59a1.89,1.89,0,0,1,1.89,1.89v-1.5A1.89,1.89,0,0,0,20.59,16.52Z" />
    <circle class="cls-5" cx="8.98" cy="27.02" r="1.5" />
    <circle class="cls-6" cx="14.98" cy="27.02" r="1.5" />
    <circle class="cls-7" cx="20.98" cy="27.02" r="1.5" />
    <circle class="cls-8" cx="8.98" cy="31.52" r="1.5" />
    <circle class="cls-9" cx="14.98" cy="31.52" r="1.5" />
    <circle class="cls-10" cx="20.98" cy="31.52" r="1.5" />
    <circle class="cls-11" cx="8.98" cy="36.02" r="1.5" />
    <circle class="cls-12" cx="14.98" cy="36.02" r="1.5" />
    <circle class="cls-13" cx="20.98" cy="36.02" r="1.5" />
    <circle class="cls-14" cx="29.98" cy="21.02" r="15.04" />
    <path class="cls-15" d="M24,18H15.24A15.05,15.05,0,0,0,27,35.76V21A3,3,0,0,0,24,18Z" />
    <circle class="cls-16" cx="29.98" cy="21.02" r="11.82" />
    <circle class="cls-17" cx="29.98" cy="21.04" r="10.73" />
    <path class="cls-18" d="M24,18h-4.3A10.7,10.7,0,0,0,27,31.33V21A3,3,0,0,0,24,18Z" />
    <circle class="cls-19" cx="29.98" cy="10.28" r="0.54" />
    <circle class="cls-20" cx="29.98" cy="31.76" r="0.54" />
    <circle class="cls-21" cx="24.61" cy="11.72" r="0.54"
        transform="translate(-2.56 13.87) rotate(-30)" />
    <circle class="cls-22" cx="35.35" cy="30.33" r="0.54"
        transform="matrix(0.87, -0.5, 0.5, 0.87, -10.43, 21.74)" />
    <circle class="cls-23" cx="20.67" cy="15.65" r="0.54"
        transform="translate(-3.21 25.73) rotate(-60)" />
    <circle class="cls-24" cx="39.28" cy="26.39" r="0.54"
        transform="translate(-3.22 47.22) rotate(-60)" />
    <circle class="cls-25" cx="19.24" cy="21.02" r="0.54" />
    <circle class="cls-26" cx="40.72" cy="21.02" r="0.54" />
    <circle class="cls-27" cx="20.67" cy="26.39" r="0.54"
        transform="translate(-10.43 13.87) rotate(-30)" />
    <circle class="cls-28" cx="39.28" cy="15.65" r="0.54"
        transform="translate(-2.56 21.74) rotate(-30)" />
    <circle class="cls-29" cx="24.61" cy="30.33" r="0.54"
        transform="translate(-13.96 36.47) rotate(-60)" />
    <circle class="cls-30" cx="35.35" cy="11.72" r="0.54"
        transform="translate(7.53 36.47) rotate(-60)" />
    <path class="cls-31"
        d="M35.35,18.53a3.89,3.89,0,0,0-4-4h-.3a0,0,0,0,1,0,0V13.5a1.07,1.07,0,1,0-2.15,0v1.07H27.83V13.5a1.07,1.07,0,1,0-2.15,0v1.05a0,0,0,0,1,0,0H24.61a1.07,1.07,0,1,0,0,2.15,1.11,1.11,0,0,1,1.07,1.14v7.43a0,0,0,0,1,0,0H24.61a1.07,1.07,0,1,0,0,2.15,1.07,1.07,0,0,1,1.07,1.07,1.07,1.07,0,1,0,2.15,0V27.47H28.9v1.07a1.07,1.07,0,1,0,2.15,0V27.49a0,0,0,0,1,0,0h.3a3.89,3.89,0,0,0,4-4A3.75,3.75,0,0,0,34.23,21a0,0,0,0,1,0,0A3.75,3.75,0,0,0,35.35,18.53Zm-3.87,6.79h-3a.63.63,0,0,1-.63-.63v-2.3a.29.29,0,0,1,.29-.29h3.47a1.61,1.61,0,0,1,1.6,1.76A1.69,1.69,0,0,1,31.47,25.32Zm0-5.37h-3a.63.63,0,0,1-.63-.63V17a.29.29,0,0,1,.29-.29h3.47a1.61,1.61,0,0,1,1.6,1.76A1.69,1.69,0,0,1,31.47,19.95Z" />
</svg>