<?xml version="1.0" encoding="UTF-8" standalone="no"?>
<!-- Created with Inkscape (http://www.inkscape.org/) -->

<svg
   width="80pt"
   height="80pt"
   viewBox="0 0 22.577778 22.577778"
   version="1.1"
   id="svg831"
   inkscape:version="1.1.1 (3bf5ae0d25, 2021-09-20)"
   sodipodi:docname="Export.svg"
   inkscape:export-filename="C:\Users\User\Desktop\CARLOS PROJECT\5. MAY 1\Done\Flat\14 - Gym Equitment.png"
   inkscape:export-xdpi="576"
   inkscape:export-ydpi="576"
   xmlns:inkscape="http://www.inkscape.org/namespaces/inkscape"
   xmlns:sodipodi="http://sodipodi.sourceforge.net/DTD/sodipodi-0.dtd"
   xmlns="http://www.w3.org/2000/svg"
   xmlns:svg="http://www.w3.org/2000/svg"
   xmlns:rdf="http://www.w3.org/1999/02/22-rdf-syntax-ns#"
   xmlns:cc="http://creativecommons.org/ns#"
   xmlns:dc="http://purl.org/dc/elements/1.1/">
  <defs
     id="defs825">
    <pattern
       id="EMFhbasepattern"
       patternUnits="userSpaceOnUse"
       width="6"
       height="6"
       x="0"
       y="0" />
    <pattern
       id="EMFhbasepattern-9"
       patternUnits="userSpaceOnUse"
       width="6"
       height="6"
       x="0"
       y="0" />
    <pattern
       id="EMFhbasepattern-0"
       patternUnits="userSpaceOnUse"
       width="6"
       height="6"
       x="0"
       y="0" />
    <pattern
       id="EMFhbasepattern-7"
       patternUnits="userSpaceOnUse"
       width="6"
       height="6"
       x="0"
       y="0" />
    <pattern
       id="EMFhbasepattern-2"
       patternUnits="userSpaceOnUse"
       width="6"
       height="6"
       x="0"
       y="0" />
    <pattern
       id="EMFhbasepattern-98"
       patternUnits="userSpaceOnUse"
       width="6"
       height="6"
       x="0"
       y="0" />
    <pattern
       id="EMFhbasepattern-6"
       patternUnits="userSpaceOnUse"
       width="6"
       height="6"
       x="0"
       y="0" />
    <pattern
       id="EMFhbasepattern-01"
       patternUnits="userSpaceOnUse"
       width="6"
       height="6"
       x="0"
       y="0" />
    <pattern
       id="EMFhbasepattern-07"
       patternUnits="userSpaceOnUse"
       width="6"
       height="6"
       x="0"
       y="0" />
    <pattern
       id="EMFhbasepattern-8"
       patternUnits="userSpaceOnUse"
       width="6"
       height="6"
       x="0"
       y="0" />
    <pattern
       id="EMFhbasepattern-4"
       patternUnits="userSpaceOnUse"
       width="6"
       height="6"
       x="0"
       y="0" />
    <pattern
       id="EMFhbasepattern-40"
       patternUnits="userSpaceOnUse"
       width="6"
       height="6"
       x="0"
       y="0" />
    <pattern
       id="EMFhbasepattern-08"
       patternUnits="userSpaceOnUse"
       width="6"
       height="6"
       x="0"
       y="0" />
    <pattern
       id="EMFhbasepattern-04"
       patternUnits="userSpaceOnUse"
       width="6"
       height="6"
       x="0"
       y="0" />
    <pattern
       id="EMFhbasepattern-014"
       patternUnits="userSpaceOnUse"
       width="6"
       height="6"
       x="0"
       y="0" />
    <pattern
       id="EMFhbasepattern-27"
       patternUnits="userSpaceOnUse"
       width="6"
       height="6"
       x="0"
       y="0" />
    <pattern
       id="EMFhbasepattern-09"
       patternUnits="userSpaceOnUse"
       width="6"
       height="6"
       x="0"
       y="0" />
    <pattern
       id="EMFhbasepattern-5"
       patternUnits="userSpaceOnUse"
       width="6"
       height="6"
       x="0"
       y="0" />
    <pattern
       id="EMFhbasepattern-018"
       patternUnits="userSpaceOnUse"
       width="6"
       height="6"
       x="0"
       y="0" />
  </defs>
  <sodipodi:namedview
     id="base"
     pagecolor="#ffffff"
     bordercolor="#666666"
     borderopacity="1.0"
     inkscape:pageopacity="0.0"
     inkscape:pageshadow="2"
     inkscape:zoom="6.5876941"
     inkscape:cx="28.082664"
     inkscape:cy="49.258511"
     inkscape:document-units="pt"
     inkscape:current-layer="layer1"
     showgrid="false"
     units="pt"
     inkscape:window-width="1920"
     inkscape:window-height="1001"
     inkscape:window-x="-9"
     inkscape:window-y="-9"
     inkscape:window-maximized="1"
     inkscape:pagecheckerboard="true"
     inkscape:showpageshadow="false"
     inkscape:object-paths="true"
     inkscape:snap-intersection-paths="true"
     inkscape:snap-smooth-nodes="true"
     inkscape:snap-midpoints="true"
     showguides="true"
     inkscape:snap-bbox="true"
     inkscape:bbox-nodes="true"
     inkscape:snap-nodes="false"
     inkscape:snap-global="true">
    <inkscape:grid
       type="xygrid"
       id="grid1378" />
    <sodipodi:guide
       position="0.97013831,21.607643"
       orientation="78.000048,0"
       id="guide1380"
       inkscape:locked="false" />
    <sodipodi:guide
       position="0.97013831,0.97013129"
       orientation="0,78.000005"
       id="guide1382"
       inkscape:locked="false" />
    <sodipodi:guide
       position="21.607639,0.97013129"
       orientation="-78.000048,0"
       id="guide1384"
       inkscape:locked="false" />
    <sodipodi:guide
       position="21.607639,21.607643"
       orientation="0,-78.000005"
       id="guide1386"
       inkscape:locked="false" />
  </sodipodi:namedview>
  <metadata
     id="metadata828">
    <rdf:RDF>
      <cc:Work
         rdf:about="">
        <dc:format>image/svg+xml</dc:format>
        <dc:type
           rdf:resource="http://purl.org/dc/dcmitype/StillImage" />
      </cc:Work>
    </rdf:RDF>
  </metadata>
  <g
     inkscape:label="Icon"
     inkscape:groupmode="layer"
     id="layer1"
     transform="translate(0,-274.42223)">
    <g
       id="g417990"
       style="display:inline;stroke-width:0.796337"
       transform="matrix(1.2557491,0,0,1.2557491,38.959929,-149.70905)">
      <path
         style="color:#000000;fill:#c8dae5;stroke-width:0.796337;stroke-linecap:round;stroke-linejoin:round;-inkscape-stroke:none"
         d="m -28.277344,352.38477 a 0.26460996,0.26460996 0 0 0 -0.328125,0.18554 l -0.175781,0.65235 c -0.109713,0.40945 0.16331,0.82016 0.572266,0.92968 0.408904,0.10957 0.851223,-0.10813 0.960937,-0.51757 l 0.171875,-0.63868 a 0.26460996,0.26460996 0 0 0 -0.183594,-0.32422 z"
         id="path589376" />
      <path
         id="path614231"
         style="color:#000000;fill:#b0c3d3;fill-opacity:1;stroke-width:0.796337;stroke-linecap:round;stroke-linejoin:round;-inkscape-stroke:none"
         d="m -27.605552,352.99601 -0.171566,0.63872 c -0.06625,0.24726 -0.253899,0.42474 -0.48214,0.5023 0.01655,0.006 0.03309,0.0109 0.05013,0.0155 0.408905,0.10957 0.851469,-0.10836 0.961181,-0.5178 l 0.171566,-0.63872 z"
         sodipodi:nodetypes="ccccccc" />
      <path
         id="path612898"
         style="color:#000000;fill:#b0c3d3;fill-opacity:1;stroke-width:0.796337;stroke-linecap:round;stroke-linejoin:round;-inkscape-stroke:none"
         d="m -28.605489,352.57025 -0.154514,0.57361 c 0.106453,0.15603 0.270423,0.27649 0.465087,0.32866 l 0.767395,0.20515 c 0.08536,0.0229 0.172403,0.0309 0.25735,0.0264 0.08111,-0.22057 0.130398,-0.47203 0.193786,-0.70802 z"
         sodipodi:nodetypes="ccccccc" />
      <path
         style="color:#000000;fill:#394d5c;stroke-width:0.796337;stroke-linecap:round;stroke-linejoin:round;-inkscape-stroke:none"
         d="m -28.417969,351.35742 a 0.26460996,0.26460996 0 0 0 -0.324218,0.1875 l -0.125,0.46875 c -0.109704,0.40943 0.163383,0.82012 0.572265,0.92969 l 0.767578,0.20508 c 0.408854,0.1095 0.851232,-0.11009 0.960938,-0.51953 l 0.125,-0.46875 a 0.26460996,0.26460996 0 0 0 -0.1875,-0.32227 z"
         id="path589184" />
      <path
         style="color:#000000;fill:#c8dae5;stroke-width:0.796337;stroke-linecap:round;stroke-linejoin:round;-inkscape-stroke:none"
         d="m -24.236328,339.33008 c -0.408899,-0.10957 -0.851223,0.11009 -0.960938,0.51953 l -0.148437,0.55273 a 0.26460996,0.26460996 0 0 0 0.183594,0.32422 l 1.017578,0.28711 a 0.26460996,0.26460996 0 0 0 0.328125,-0.18555 l 0.152344,-0.56835 c 0.109713,-0.40946 -0.163317,-0.82017 -0.572266,-0.92969 z"
         id="path586648" />
      <path
         id="path602882"
         style="color:#000000;fill:#b0c3d3;fill-opacity:1;stroke-width:0.796337;stroke-linecap:round;stroke-linejoin:round;-inkscape-stroke:none"
         d="m -23.816634,340.82839 0.152445,-0.56844 c 0.109713,-0.40946 -0.16311,-0.82013 -0.572058,-0.92966 -0.406174,-0.0985 -0.829472,0.0763 -0.961183,0.51929 l -0.0031,0.0119 c 0.138163,-0.0388 0.288724,-0.0413 0.435115,-0.002 0.408948,0.10952 0.681771,0.5202 0.572059,0.92966 z"
         sodipodi:nodetypes="cccccccc" />
      <path
         style="color:#000000;fill:#c8dae5;stroke-width:0.796337;stroke-linecap:round;stroke-linejoin:round;-inkscape-stroke:none"
         d="m -26.322266,345.07031 c -0.112371,-0.0302 -0.231269,0.0166 -0.292968,0.11524 l -0.492188,0.79201 c -0.01396,0.0224 -0.240228,0.89847 -0.240228,0.89847 -0.0067,0.0261 0.03126,0.93262 0.03126,0.93262 0.0049,0.11525 0.08395,0.21403 0.195312,0.24414 l 1.021485,0.27344 c 0.11193,0.0306 0.230709,-0.0154 0.292968,-0.11328 l 0.492188,-0.79201 c 0.01397,-0.0224 0.240228,-0.89942 0.240228,-0.89942 0.0065,-0.0255 -0.0293,-0.93163 -0.0293,-0.93163 -0.0052,-0.1158 -0.08513,-0.21475 -0.197265,-0.24414 z"
         id="path587608"
         sodipodi:nodetypes="ccccccccccccc" />
      <path
         id="path620225"
         style="color:#000000;fill:#b0c3d3;fill-opacity:1;stroke-width:0.796337;stroke-linecap:round;stroke-linejoin:round;-inkscape-stroke:none"
         d="m -25.806645,348.21278 0.492216,-0.79193 c 0.01401,-0.0222 0.24032,-0.89938 0.24032,-0.89938 0.0065,-0.0256 -0.02917,-0.93171 -0.02917,-0.93171 -0.0053,-0.11576 -0.08529,-0.2146 -0.197403,-0.24391 l -1.021644,-0.27544 c -0.02708,-0.007 -0.05516,-0.0104 -0.0832,-0.009 l -9.8e-5,2.5e-4 c -0.08594,0.005 -0.164205,0.051 -0.209806,0.12402 l -0.258382,0.4098 c 0.0075,10e-4 0.01487,0.002 0.02222,0.004 l 1.021643,0.27544 c 0.112109,0.0293 0.192106,0.12815 0.197403,0.24391 l 0.02922,0.93175 c 0.0014,0.0264 -0.22451,0.86354 -0.22451,0.86354 z"
         sodipodi:nodetypes="cccccccccccccccc" />
      <path
         style="color:#000000;fill:#b0c3d3;stroke-width:0.796337;stroke-linecap:round;stroke-linejoin:round;-inkscape-stroke:none"
         d="m -26.855469,343.99219 a 0.26460996,0.26460996 0 0 0 -0.324218,0.1875 l -0.0957,0.36133 c -0.112651,0.42041 0.140087,0.86005 0.560547,0.97265 l 1.533203,0.41211 c 0.420409,0.11265 0.860006,-0.14209 0.972657,-0.5625 l 0.0957,-0.36133 a 0.26460996,0.26460996 0 0 0 -0.185547,-0.32422 z"
         id="path587416" />
      <path
         style="color:#000000;fill:#b0c3d3;stroke-width:0.796337;stroke-linecap:round;stroke-linejoin:round;-inkscape-stroke:none"
         d="m -27.240234,347.47266 c -0.420389,-0.11259 -0.860002,0.14209 -0.972657,0.5625 l -0.0957,0.36132 a 0.26460996,0.26460996 0 0 0 0.185547,0.32422 l 2.556641,0.68555 a 0.26460996,0.26460996 0 0 0 0.324219,-0.1875 l 0.09766,-0.36328 c 0.11265,-0.42041 -0.142092,-0.85806 -0.5625,-0.9707 z"
         id="path587800" />
      <path
         style="color:#000000;fill:#a7e3fa;stroke-width:0.796337;stroke-linecap:round;stroke-linejoin:round;-inkscape-stroke:none"
         d="m -22.021484,343.30273 a 0.26460996,0.26460996 0 0 0 -0.263672,0.26368 v 9.25976 c 0,0.58137 0.477228,1.0586 1.058594,1.0586 h 4.232421 c 0.581366,0 1.058594,-0.47723 1.058594,-1.0586 v -9.25976 a 0.26460996,0.26460996 0 0 0 -0.263672,-0.26368 z"
         id="path585600" />
      <path
         style="color:#000000;fill:#a7e3fa;stroke-width:0.796337;stroke-linecap:round;stroke-linejoin:round;-inkscape-stroke:none"
         d="m -16.597656,339.70898 c -0.376936,-0.21763 -0.868318,-0.0859 -1.085938,0.29102 l -0.5,0.86719 a 0.26460996,0.26460996 0 0 0 0.08203,0.35156 l 1.103515,0.73437 a 0.26460996,0.26460996 0 0 0 0.376953,-0.0879 l 0.542969,-0.93945 c 0.217627,-0.37694 0.08597,-0.86639 -0.291016,-1.08398 z"
         id="path585408" />
      <path
         id="path593237"
         style="color:#000000;fill:#87d1ee;fill-opacity:1;stroke-width:0.796337;stroke-linecap:round;stroke-linejoin:round;-inkscape-stroke:none"
         d="m -22.021396,343.30259 a 0.26460996,0.26460996 0 0 0 -0.263548,0.26407 v 0.79427 h 5.027599 a 0.26460996,0.26460996 0 0 1 0.26355,0.26407 v 9.25938 c 0,1.7e-4 0,3.4e-4 0,5.2e-4 0.581131,-2.9e-4 1.058333,-0.47766 1.058333,-1.05886 v -9.25938 a 0.26460996,0.26460996 0 0 0 -0.263549,-0.26407 z" />
      <path
         id="path585792"
         style="color:#000000;fill:#2587b5;stroke-width:3.00978;stroke-linecap:round;stroke-linejoin:round;-inkscape-stroke:none"
         d="m -84.226562,243.00391 v 5.99414 h 16.416015 c 0.488727,1.65736 1.771521,3.0039 3.580078,3.0039 h 3.00586 c 0.329907,0 0.668276,0.0782 0.996093,0.2168 1.066342,0.45072 2,1.5532 2,2.78125 v 10.99805 c 0,1.22805 -0.933662,2.33436 -2,2.78711 -0.327816,0.13918 -0.66619,0.21679 -0.996093,0.21679 h -23.001953 v 5.99414 c 7.506978,0 16.639239,-7e-5 23.998046,0 4.406347,0 8.001941,-3.58777 8.001954,-7.99414 v -17 c 0,-3.85413 -3.151713,-6.99804 -7.00586,-6.99804 z"
         transform="matrix(0.26458334,0,0,0.26458334,0,280.06666)"
         sodipodi:nodetypes="cccsscssssccssscc" />
      <path
         id="path594882"
         style="color:#000000;fill:#1d5c87;fill-opacity:1;stroke-width:0.796337;stroke-linecap:round;stroke-linejoin:round;-inkscape-stroke:none"
         d="m -16.201078,344.89061 c 1.019743,0 1.853634,0.83183 1.853634,1.85157 v 4.49791 c -2e-6,0.44752 -0.140637,0.86285 -0.379306,1.2051 0.548213,-0.38274 0.90847,-1.01728 0.908472,-1.73426 v -4.49792 c 0,-1.01974 -0.833891,-1.85156 -1.853634,-1.85156 h -6.613032 v 0.52916 z"
         sodipodi:nodetypes="csccsscccc" />
      <path
         id="path608318"
         style="color:#000000;fill:#143441;fill-opacity:1;stroke-width:0.796337;stroke-linecap:round;stroke-linejoin:round;-inkscape-stroke:none"
         d="m -28.742432,351.54499 -0.124542,0.4687 c -0.03949,0.14737 -0.02906,0.2948 0.01913,0.4284 l 1.689819,0.45424 c 0.09693,0.026 0.170784,0.1047 0.190685,0.20308 0.190858,-0.0895 0.342792,-0.25298 0.401011,-0.47025 l 0.125055,-0.46922 z"
         sodipodi:nodetypes="cccccccc" />
      <path
         style="color:#000000;fill:#394d5c;stroke-width:0.796337;stroke-linecap:round;stroke-linejoin:round;-inkscape-stroke:none"
         d="m -28.679687,349.78125 c -0.408862,-0.1095 -0.851228,0.10812 -0.960938,0.51758 l -0.0625,0.23437 c -0.144381,0.53883 0.215582,1.08504 0.765625,1.23242 l 2.554688,0.68555 c 0.550052,0.14739 1.134918,-0.14672 1.279296,-0.68555 l 0.0625,-0.23242 c 0.109716,-0.40945 -0.163366,-0.82012 -0.572265,-0.92968 z"
         id="path588992" />
      <path
         id="path608320"
         style="color:#000000;fill:#143441;fill-opacity:1;stroke-width:0.796337;stroke-linecap:round;stroke-linejoin:round;-inkscape-stroke:none"
         d="m -28.910897,349.75336 c -0.331949,0.007 -0.640533,0.21302 -0.729671,0.54571 l -0.06253,0.23409 c -0.0304,0.11344 -0.03825,0.22714 -0.02687,0.33745 0.160086,-0.0646 0.343527,-0.0785 0.520899,-0.031 l 3.066478,0.82217 c 0.325136,0.0871 0.564539,0.3647 0.593762,0.68058 0.212775,-0.12473 0.377669,-0.32373 0.44545,-0.57671 l 0.06253,-0.23254 c 0.109717,-0.40945 -0.163677,-0.8201 -0.572574,-0.92966 l -3.066479,-0.82217 c -0.07666,-0.0205 -0.154392,-0.0295 -0.230994,-0.0279 z" />
      <path
         style="color:#000000;fill:#394d5c;stroke-width:0.796337;stroke-linecap:round;stroke-linejoin:round;-inkscape-stroke:none"
         d="m -29.134766,347.90234 c -0.408861,-0.10949 -0.851227,0.10812 -0.960937,0.51758 l -0.125,0.46875 c -0.14438,0.53883 0.215582,1.08504 0.765625,1.23242 l 4.34375,1.16407 c 0.550049,0.14738 1.13492,-0.14672 1.279297,-0.68555 l 0.125,-0.4668 c 0.109716,-0.40945 -0.163367,-0.82012 -0.572266,-0.92969 z"
         id="path587992" />
      <path
         id="path616151"
         style="color:#000000;fill:#97abba;fill-opacity:1;stroke-width:0.796337;stroke-linecap:round;stroke-linejoin:round;-inkscape-stroke:none"
         d="m -26.947194,343.98421 a 0.26460996,0.26460996 0 0 0 -0.232542,0.19534 l -0.0956,0.36173 c -0.03783,0.14118 -0.03451,0.28411 0.0026,0.41651 l 2.853571,0.76429 c 0.09799,-0.096 0.172614,-0.2179 0.210322,-0.35863 l 0.0956,-0.36173 a 0.26460996,0.26460996 0 0 0 -0.185518,-0.32401 l -2.556949,-0.68575 a 0.26460996,0.26460996 0 0 0 -0.09147,-0.008 z" />
      <path
         style="color:#000000;fill:#394d5c;stroke-width:0.796337;stroke-linecap:round;stroke-linejoin:round;-inkscape-stroke:none"
         d="m -27.310547,342.11328 c -0.550043,-0.14738 -1.134917,0.14477 -1.279297,0.68359 l -0.125,0.46875 c -0.109716,0.40946 0.163312,0.82017 0.572266,0.92969 l 4.855469,1.30078 c 0.408898,0.10957 0.851223,-0.10813 0.960937,-0.51757 l 0.126953,-0.46875 c 0.144378,-0.53883 -0.215577,-1.08504 -0.765625,-1.23243 z"
         id="path587224" />
      <path
         style="color:#000000;fill:#394d5c;stroke-width:0.796337;stroke-linecap:round;stroke-linejoin:round;-inkscape-stroke:none"
         d="m -26.039062,340.94727 c -0.550048,-0.14739 -1.134918,0.14476 -1.279297,0.68359 l -0.0625,0.23437 c -0.109713,0.40946 0.163316,0.82017 0.572265,0.92969 l 3.066407,0.82227 c 0.408898,0.10956 0.851223,-0.11009 0.960937,-0.51953 l 0.0625,-0.23438 c 0.144376,-0.53883 -0.215576,-1.08308 -0.765625,-1.23047 z"
         id="path587032" />
      <path
         style="color:#000000;fill:#394d5c;stroke-width:0.796337;stroke-linecap:round;stroke-linejoin:round;-inkscape-stroke:none"
         d="m -24.894531,340.25 c -0.408889,-0.10957 -0.84928,0.10814 -0.958985,0.51758 l -0.126953,0.46875 a 0.26460996,0.26460996 0 0 0 0.1875,0.32422 l 1.789063,0.48047 a 0.26460996,0.26460996 0 0 0 0.324219,-0.1875 l 0.125,-0.46875 c 0.109708,-0.40944 -0.163327,-0.82017 -0.572266,-0.92969 z"
         id="path586840" />
      <path
         style="color:#000000;fill:#4377d1;stroke-width:0.796337;stroke-linecap:round;stroke-linejoin:round;-inkscape-stroke:none"
         d="m -19.111328,347.00586 a 0.26460996,0.26460996 0 0 0 -0.1875,0.0801 c 0,0 -0.241749,0.24432 -0.484375,0.55859 -0.242626,0.31427 -0.517577,0.66662 -0.517578,1.08203 -5e-6,0.65443 0.535018,1.18946 1.189453,1.18946 0.654434,0 1.191411,-0.53503 1.191406,-1.18946 -1e-6,-0.41541 -0.274952,-0.76776 -0.517578,-1.08203 -0.242626,-0.31427 -0.484375,-0.55859 -0.484375,-0.55859 a 0.26460996,0.26460996 0 0 0 -0.189453,-0.0801 z"
         id="path585984" />
      <path
         style="color:#000000;fill:#2587b5;stroke-width:0.796337;stroke-linecap:round;stroke-linejoin:round;-inkscape-stroke:none"
         d="m -19.111328,340.52344 c -1.712545,0 -3.154839,1.19021 -3.294922,3.00781 a 0.26460996,0.26460996 0 0 0 0.263672,0.2832 h 6.064453 a 0.26460996,0.26460996 0 0 0 0.263672,-0.2832 c -0.140084,-1.8176 -1.58433,-3.00781 -3.296875,-3.00781 z"
         id="path585216" />
      <path
         id="path596587"
         style="color:#000000;fill:#87d1ee;fill-opacity:1;stroke-width:0.796337;stroke-linecap:round;stroke-linejoin:round;-inkscape-stroke:none"
         d="m -17.683676,339.99995 -0.102835,0.17829 c 0.211581,-0.0737 0.453117,-0.0595 0.659907,0.0599 l 0.22841,0.13281 c 0.376986,0.21759 0.508566,0.70723 0.290939,1.08417 l -0.309025,0.53434 c 0.115047,0.0296 0.235704,-0.0211 0.295072,-0.12403 l 0.543119,-0.93947 c 0.217627,-0.37694 0.08605,-0.86659 -0.290938,-1.08417 l -0.22841,-0.13281 c -0.385483,-0.22256 -0.870515,-0.0656 -1.086239,0.29097 z"
         sodipodi:nodetypes="ccccccccccc" />
      <path
         id="path589564"
         style="color:#000000;fill:#1d5c87;fill-opacity:1;stroke-width:0.796337;stroke-linecap:round;stroke-linejoin:round;-inkscape-stroke:none"
         d="m -19.111495,340.52343 c -1.058349,0 -2.013196,0.45464 -2.621546,1.23093 0.573132,-0.4495 1.304063,-0.70176 2.092379,-0.70176 1.634099,0 3.023969,1.08373 3.269568,2.7621 h 0.293005 a 0.26460996,0.26460996 0 0 0 0.26355,-0.2837 c -0.140084,-1.8176 -1.584411,-3.00757 -3.296956,-3.00757 z" />
      <path
         id="path598259"
         style="color:#000000;fill:#143441;fill-opacity:1;stroke-width:3.00978;stroke-linecap:round;stroke-linejoin:round;-inkscape-stroke:none"
         d="m -104.39258,234.36328 c -1.53745,0.03 -2.96063,0.90696 -3.5293,2.32617 0.82028,-0.34792 1.77384,-0.43011 2.70118,-0.18164 l 16.423825,4.39844 c 2.078922,0.55706 3.440212,2.62168 2.894531,4.6582 l -0.466797,1.71875 c 0.936278,-0.26063 1.720142,-0.95388 1.986329,-1.94726 l 0.480468,-1.77149 c 0.545681,-2.03652 -0.815609,-4.10114 -2.894531,-4.6582 l -16.423825,-4.39844 c -0.3898,-0.10444 -0.78467,-0.15209 -1.17188,-0.14453 z"
         transform="matrix(0.26458334,0,0,0.26458334,0,280.06666)" />
      <path
         id="path600528"
         style="color:#000000;fill:#143441;fill-opacity:1;stroke-width:0.796337;stroke-linecap:round;stroke-linejoin:round;-inkscape-stroke:none"
         d="m -27.282572,341.52493 c 0.217041,-0.0921 0.468789,-0.11433 0.714166,-0.0486 l 2.554883,0.68575 c 0.55005,0.14739 0.910222,0.69158 0.765847,1.23042 l -0.05943,0.2222 c 0.247751,-0.0695 0.455631,-0.25442 0.526066,-0.51728 l 0.06253,-0.23409 c 0.144375,-0.53883 -0.215797,-1.08303 -0.765847,-1.23042 l -2.554883,-0.68574 c -0.636845,-0.16209 -1.078723,0.194 -1.243332,0.57776 z"
         sodipodi:nodetypes="cccccccccc" />
      <path
         id="path601705"
         style="color:#000000;fill:#143441;fill-opacity:1;stroke-width:0.796337;stroke-linecap:round;stroke-linejoin:round;-inkscape-stroke:none"
         d="m -25.853719,340.76735 -0.0036,0.0134 c 0.137581,-0.0382 0.287523,-0.0407 0.433568,-0.002 l 0.767395,0.20516 c 0.408937,0.10952 0.682281,0.52022 0.572574,0.92966 l -0.02635,0.0987 0.106453,0.0284 c 0.141282,0.0378 0.286396,-0.0463 0.324011,-0.18758 l 0.125058,-0.46871 c 0.109707,-0.40944 -0.163637,-0.82014 -0.572574,-0.92966 l -0.767395,-0.20515 c -0.423502,-0.11348 -0.853081,0.12196 -0.95914,0.51778 z"
         sodipodi:nodetypes="cccccccccccc" />
      <path
         id="path618775"
         style="color:#000000;fill:#97abba;fill-opacity:1;stroke-width:0.796337;stroke-linecap:round;stroke-linejoin:round;-inkscape-stroke:none"
         d="m -28.002427,347.67649 c -0.09803,0.096 -0.172603,0.21787 -0.210322,0.35863 l -0.0956,0.36122 a 0.26460996,0.26460996 0 0 0 0.185518,0.32453 l 2.556433,0.68523 a 0.26460996,0.26460996 0 0 0 0.324012,-0.18759 l 0.09767,-0.36328 c 0.03763,-0.14044 0.03426,-0.2824 -0.0026,-0.41393 z" />
      <path
         id="path605338"
         style="color:#000000;fill:#143441;fill-opacity:1;stroke-width:0.796337;stroke-linecap:round;stroke-linejoin:round;-inkscape-stroke:none"
         d="m -30.099439,348.43351 c 0.138298,-0.0386 0.289084,-0.0413 0.435634,-0.002 l 4.855517,1.3007 c 0.408898,0.10957 0.681773,0.52021 0.572058,0.92966 l -0.125058,0.46715 c -0.01,0.0372 -0.02216,0.0727 -0.03617,0.10749 0.269801,-0.11477 0.485304,-0.33795 0.565341,-0.63666 l 0.125058,-0.46715 c 0.109715,-0.40945 -0.163161,-0.82009 -0.572058,-0.92966 l -4.855517,-1.3007 c -0.569186,-0.14326 -0.88896,0.23279 -0.964805,0.53117 z"
         sodipodi:nodetypes="ccccccccccc" />
    </g>
  </g>
</svg>
