<?xml version="1.0" encoding="UTF-8" standalone="no"?>
<!-- Created with Inkscape (http://www.inkscape.org/) -->

<svg
   width="70pt"
   height="70pt"
   viewBox="0 0 22.577778 22.577778"
   version="1.1"
   id="svg831"
   inkscape:version="1.1.1 (3bf5ae0d25, 2021-09-20)"
   sodipodi:docname="Export.svg"
   inkscape:export-filename="C:\Users\User\Desktop\CARLOS PROJECT\5. MAY 1\Done\Flat\08 - Protein Shake.png"
   inkscape:export-xdpi="576"
   inkscape:export-ydpi="576"
   xmlns:inkscape="http://www.inkscape.org/namespaces/inkscape"
   xmlns:sodipodi="http://sodipodi.sourceforge.net/DTD/sodipodi-0.dtd"
   xmlns="http://www.w3.org/2000/svg"
   xmlns:svg="http://www.w3.org/2000/svg"
   xmlns:rdf="http://www.w3.org/1999/02/22-rdf-syntax-ns#"
   xmlns:cc="http://creativecommons.org/ns#"
   xmlns:dc="http://purl.org/dc/elements/1.1/">
  <defs
     id="defs825">
    <pattern
       id="EMFhbasepattern"
       patternUnits="userSpaceOnUse"
       width="6"
       height="6"
       x="0"
       y="0" />
    <pattern
       id="EMFhbasepattern-9"
       patternUnits="userSpaceOnUse"
       width="6"
       height="6"
       x="0"
       y="0" />
    <pattern
       id="EMFhbasepattern-0"
       patternUnits="userSpaceOnUse"
       width="6"
       height="6"
       x="0"
       y="0" />
    <pattern
       id="EMFhbasepattern-7"
       patternUnits="userSpaceOnUse"
       width="6"
       height="6"
       x="0"
       y="0" />
    <pattern
       id="EMFhbasepattern-2"
       patternUnits="userSpaceOnUse"
       width="6"
       height="6"
       x="0"
       y="0" />
    <pattern
       id="EMFhbasepattern-98"
       patternUnits="userSpaceOnUse"
       width="6"
       height="6"
       x="0"
       y="0" />
    <pattern
       id="EMFhbasepattern-6"
       patternUnits="userSpaceOnUse"
       width="6"
       height="6"
       x="0"
       y="0" />
    <pattern
       id="EMFhbasepattern-01"
       patternUnits="userSpaceOnUse"
       width="6"
       height="6"
       x="0"
       y="0" />
    <pattern
       id="EMFhbasepattern-07"
       patternUnits="userSpaceOnUse"
       width="6"
       height="6"
       x="0"
       y="0" />
    <pattern
       id="EMFhbasepattern-8"
       patternUnits="userSpaceOnUse"
       width="6"
       height="6"
       x="0"
       y="0" />
    <pattern
       id="EMFhbasepattern-4"
       patternUnits="userSpaceOnUse"
       width="6"
       height="6"
       x="0"
       y="0" />
    <pattern
       id="EMFhbasepattern-40"
       patternUnits="userSpaceOnUse"
       width="6"
       height="6"
       x="0"
       y="0" />
    <pattern
       id="EMFhbasepattern-08"
       patternUnits="userSpaceOnUse"
       width="6"
       height="6"
       x="0"
       y="0" />
    <pattern
       id="EMFhbasepattern-04"
       patternUnits="userSpaceOnUse"
       width="6"
       height="6"
       x="0"
       y="0" />
    <pattern
       id="EMFhbasepattern-014"
       patternUnits="userSpaceOnUse"
       width="6"
       height="6"
       x="0"
       y="0" />
    <pattern
       id="EMFhbasepattern-27"
       patternUnits="userSpaceOnUse"
       width="6"
       height="6"
       x="0"
       y="0" />
    <pattern
       id="EMFhbasepattern-09"
       patternUnits="userSpaceOnUse"
       width="6"
       height="6"
       x="0"
       y="0" />
    <pattern
       id="EMFhbasepattern-5"
       patternUnits="userSpaceOnUse"
       width="6"
       height="6"
       x="0"
       y="0" />
    <pattern
       id="EMFhbasepattern-018"
       patternUnits="userSpaceOnUse"
       width="6"
       height="6"
       x="0"
       y="0" />
  </defs>
  <sodipodi:namedview
     id="base"
     pagecolor="#ffffff"
     bordercolor="#666666"
     borderopacity="1.0"
     inkscape:pageopacity="0.0"
     inkscape:pageshadow="2"
     inkscape:zoom="6.5876941"
     inkscape:cx="28.082664"
     inkscape:cy="49.258511"
     inkscape:document-units="pt"
     inkscape:current-layer="layer1"
     showgrid="false"
     units="pt"
     inkscape:window-width="1920"
     inkscape:window-height="1001"
     inkscape:window-x="-9"
     inkscape:window-y="-9"
     inkscape:window-maximized="1"
     inkscape:pagecheckerboard="true"
     inkscape:showpageshadow="false"
     inkscape:object-paths="true"
     inkscape:snap-intersection-paths="true"
     inkscape:snap-smooth-nodes="true"
     inkscape:snap-midpoints="true"
     showguides="true"
     inkscape:snap-bbox="true"
     inkscape:bbox-nodes="true"
     inkscape:snap-nodes="false"
     inkscape:snap-global="true">
    <inkscape:grid
       type="xygrid"
       id="grid1378" />
    <sodipodi:guide
       position="0.97013831,21.607643"
       orientation="78.000048,0"
       id="guide1380"
       inkscape:locked="false" />
    <sodipodi:guide
       position="0.97013831,0.97013129"
       orientation="0,78.000005"
       id="guide1382"
       inkscape:locked="false" />
    <sodipodi:guide
       position="21.607639,0.97013129"
       orientation="-78.000048,0"
       id="guide1384"
       inkscape:locked="false" />
    <sodipodi:guide
       position="21.607639,21.607643"
       orientation="0,-78.000005"
       id="guide1386"
       inkscape:locked="false" />
  </sodipodi:namedview>
  <metadata
     id="metadata828">
    <rdf:RDF>
      <cc:Work
         rdf:about="">
        <dc:format>image/svg+xml</dc:format>
        <dc:type
           rdf:resource="http://purl.org/dc/dcmitype/StillImage" />
      </cc:Work>
    </rdf:RDF>
  </metadata>
  <g
     inkscape:label="Icon"
     inkscape:groupmode="layer"
     id="layer1"
     transform="translate(0,-274.42223)">
    <g
       id="g595698"
       style="display:inline;stroke-width:0.794878"
       transform="matrix(1.2580546,0,0,1.2580546,-37.737278,-77.28063)">
      <path
         style="color:#000000;fill:#cccccc;stroke-width:0.794878;stroke-linecap:round;stroke-linejoin:round;-inkscape-stroke:none"
         d="m 43.351562,287.79102 a 0.26460945,0.26460945 0 0 0 -0.269531,0.14257 l -2.109375,4.18946 a 0.26460945,0.26460945 0 0 0 0.04687,0.30273 c 0.502254,0.51595 1.206702,0.83789 1.984375,0.83789 a 0.26460945,0.26460945 0 0 0 0.01758,0 c 0.726915,-0.0477 1.379784,-0.24902 1.871094,-0.69336 0.49131,-0.44433 0.798389,-1.11847 0.875,-2.03125 a 0.26460945,0.26460945 0 0 0 0,-0.0234 c -3e-6,-1.39797 -1.054976,-2.5549 -2.416016,-2.7246 z"
         id="path115022" />
      <path
         id="path158934"
         style="color:#000000;fill:#bfbfbf;fill-opacity:1;stroke-width:3.00427;stroke-linecap:round;stroke-linejoin:round;-inkscape-stroke:none"
         d="m 161.98438,31.412109 -7.12696,14.15625 a 1.0000987,1.0000987 0 0 0 0.17774,1.142579 c 0.69859,0.717648 1.49955,1.337103 2.38086,1.832031 2.89975,-0.433014 5.63682,-1.083386 7.92382,-2.326172 2.40381,-1.306243 4.42696,-3.67317 4.37696,-6.724609 0.0454,-3.047018 -1.97568,-5.411953 -4.37696,-6.716797 -1.03461,-0.562219 -2.16194,-1.006824 -3.35546,-1.363282 z"
         transform="matrix(0.26458334,0,0,0.26458334,0,280.06666)" />
      <path
         id="path157831"
         style="color:#000000;fill:#bfbfbf;fill-opacity:1;stroke-width:3.00427;stroke-linecap:round;stroke-linejoin:round;-inkscape-stroke:none"
         d="m 163.64453,29.189453 a 1.0000987,1.0000987 0 0 0 -0.81445,0.542969 l -1.5293,3.035156 c 1.45315,5.388767 2.92932,10.854966 4.47266,16.583984 1.47001,-0.419946 2.79202,-1.093105 3.89844,-2.09375 0.46254,-0.418312 0.88242,-0.889404 1.25585,-1.416015 -1.39466,-5.16511 -2.83946,-10.515112 -4.29296,-15.898438 -0.87402,-0.371577 -1.81029,-0.626252 -2.78711,-0.748047 a 1.0000987,1.0000987 0 0 0 -0.20313,-0.0059 z"
         transform="matrix(0.26458334,0,0,0.26458334,0,280.06666)" />
      <path
         style="color:#000000;fill:#5b6571;stroke-width:0.794878;stroke-linecap:round;stroke-linejoin:round;-inkscape-stroke:none"
         d="m 42.177734,283.39258 a 0.26460996,0.26460996 0 0 0 -0.259765,0.0879 l -0.808594,0.94922 a 0.26460996,0.26460996 0 0 0 -0.05469,0.24023 c 0.955324,3.56532 1.792233,6.64688 2.816407,10.45899 a 0.26460996,0.26460996 0 0 0 0.257812,0.19531 l 1.0625,-0.004 a 0.26460996,0.26460996 0 0 0 0.25586,-0.33398 c -0.941335,-3.50966 -2.043035,-7.5485 -3.072264,-11.40227 a 0.26460996,0.26460996 0 0 0 -0.197266,-0.1914 z"
         id="path114830" />
      <path
         id="path160230"
         style="color:#000000;fill:#4d545c;fill-opacity:1;stroke-width:3.00427;stroke-linecap:round;stroke-linejoin:round;-inkscape-stroke:none"
         d="m 158.73242,30.65625 c 1.46317,5.42858 2.9231,10.835864 4.45508,16.519531 0.75167,-0.274635 1.47255,-0.589574 2.15234,-0.958984 1.1478,-0.623719 2.20797,-1.490135 2.99805,-2.556641 -0.9628,-3.563511 -1.93857,-7.177695 -2.92969,-10.845703 -0.0229,-0.01268 -0.0454,-0.02657 -0.0684,-0.03906 -1.93549,-1.05177 -4.19663,-1.686244 -6.60742,-2.119141 z"
         transform="matrix(0.26458334,0,0,0.26458334,0,280.06666)" />
      <path
         id="path138578"
         style="color:#000000;fill:#4d545c;fill-opacity:1;stroke-width:0.794878;stroke-linecap:round;stroke-linejoin:round;-inkscape-stroke:none"
         d="m 42.105957,283.38687 a 0.26460996,0.26460996 0 0 0 -0.1881,0.0935 l -0.808736,0.94929 a 0.26460996,0.26460996 0 0 0 -0.05426,0.2403 c 0.01818,0.0678 0.03514,0.13046 0.05323,0.19792 l 0.280604,-0.32918 a 0.26460996,0.26460996 0 0 1 0.259932,-0.0879 0.26460996,0.26460996 0 0 1 0.197403,0.1912 c 0.96089,3.59788 1.979589,7.34068 2.877344,10.67997 l 0.468188,-0.002 a 0.26460996,0.26460996 0 0 0 0.255799,-0.33383 c -0.941335,-3.50967 -2.042935,-7.54864 -3.072164,-11.40241 a 0.26460996,0.26460996 0 0 0 -0.197403,-0.1912 0.26460996,0.26460996 0 0 0 -0.07183,-0.006 z" />
      <path
         id="path161290"
         style="color:#000000;fill:#41464d;fill-opacity:1;stroke-width:3.00427;stroke-linecap:round;stroke-linejoin:round;-inkscape-stroke:none"
         d="m 165.3398,32.775393 c -1.04402,-0.567334 -2.18472,-1.008832 -3.39062,-1.367188 l 4e-5,-2e-6 c 1.31862,4.890388 2.63137,9.744975 3.91601,14.5 0.94353,-0.589818 1.80487,-1.346614 2.47266,-2.248047 z"
         transform="matrix(0.26458334,0,0,0.26458334,0,280.06666)"
         sodipodi:nodetypes="cccccc" />
      <path
         style="color:#000000;fill:#5b6571;stroke-width:0.794878;stroke-linecap:round;stroke-linejoin:round;-inkscape-stroke:none"
         d="m 35.195312,290.38086 a 0.26460996,0.26460996 0 0 0 -0.242187,0.12891 l -2.595703,4.41601 a 0.26460996,0.26460996 0 0 0 0.230469,0.39844 l 1.224609,-0.0117 a 0.26460996,0.26460996 0 0 0 0.226562,-0.13281 l 1.882813,-3.23828 a 0.26460996,0.26460996 0 0 0 0.01367,-0.24024 l -0.511719,-1.16406 a 0.26460996,0.26460996 0 0 0 -0.228516,-0.15625 z"
         id="path116971" />
      <path
         id="path177597"
         style="fill:#4d545c;fill-opacity:1;stroke-width:3.00427;stroke-linecap:round;stroke-linejoin:round"
         d="m 133.02148,38.982422 a 1.0001006,1.0001006 0 0 0 -0.91601,0.488281 l -1.56641,2.664063 c 0.61255,2.155221 1.95612,4.011972 3.74414,5.298828 l 1.48438,-2.552735 a 1.0001006,1.0001006 0 0 0 0.0527,-0.908203 l -1.93554,-4.398437 a 1.0001006,1.0001006 0 0 0 -0.86329,-0.591797 z"
         transform="matrix(0.26458334,0,0,0.26458334,0,280.06666)" />
      <path
         id="path119661"
         style="color:#000000;fill:#4d545c;fill-opacity:1;stroke-width:0.794878;stroke-linecap:round;stroke-linejoin:round;-inkscape-stroke:none"
         d="m 35.392683,291.94136 -1.882574,3.23856 0.529168,6e-4 1.882574,-3.23856 z"
         sodipodi:nodetypes="ccccc" />
      <path
         id="path181479"
         style="fill:#41464d;fill-opacity:1;stroke-width:3.00427;stroke-linecap:round;stroke-linejoin:round"
         d="m 133.76765,44.880859 -0.81641,1.402344 c 0.4089,0.42015 0.85417,0.80647 1.33203,1.150391 l 1.48438,-2.550782 z"
         transform="matrix(0.26458334,0,0,0.26458334,0,280.06666)"
         sodipodi:nodetypes="ccccc" />
      <path
         style="color:#000000;fill:#5b6571;stroke-width:0.794878;stroke-linecap:round;stroke-linejoin:round;-inkscape-stroke:none"
         d="m 33.712891,283.91602 a 0.26460996,0.26460996 0 0 0 -0.25586,0.33203 c 0.884473,3.28749 1.953998,7.2682 2.94336,10.88086 a 0.26460996,0.26460996 0 0 0 0.253906,0.19531 h 1.060547 a 0.26460996,0.26460996 0 0 0 0.255859,-0.33399 c -0.913002,-3.3525 -1.816267,-6.70647 -2.699219,-10.0664 a 0.26460996,0.26460996 0 0 0 -0.002,-0.008 c -0.177697,-0.61336 -0.798277,-1 -1.55664,-1 z"
         id="path114557" />
      <path
         id="path177599"
         style="color:#000000;fill:#4d545c;fill-opacity:1;stroke-width:3.00427;stroke-linecap:round;stroke-linejoin:round;-inkscape-stroke:none"
         d="m 136.48633,30.355469 c -2.09862,0.818688 -3.85188,2.325301 -4.97461,4.234375 1.19857,4.441171 2.41213,8.932116 3.625,13.394531 1.46895,0.845893 3.17234,1.334436 4.98633,1.333984 0.4247,-4.3e-5 0.98502,3.08e-4 1.46484,0.002 -1.71285,-6.318492 -3.41566,-12.639913 -5.10156,-18.964843 z"
         transform="matrix(0.26458334,0,0,0.26458334,0,280.06666)" />
      <path
         id="path117351"
         style="color:#000000;fill:#4d545c;fill-opacity:1;stroke-width:0.794878;stroke-linecap:round;stroke-linejoin:round;-inkscape-stroke:none"
         d="m 37.388463,295.32437 h 0.326594 c 0.174471,2.7e-4 0.301439,-0.16543 0.255799,-0.33383 l -2.701215,-10.07457 c -0.177696,-0.61336 -0.798647,-0.99994 -1.557009,-0.99994 l -0.195819,0.55501 c 0.602448,0.0961 1.072864,0.45346 1.223698,0.9741 z"
         sodipodi:nodetypes="cccccccc" />
      <path
         id="path179244"
         style="color:#000000;fill:#41464d;fill-opacity:1;stroke-width:3.00427;stroke-linecap:round;stroke-linejoin:round;-inkscape-stroke:none"
         d="m 136.52739,30.355469 c -0.79093,0.308547 -1.57445,0.714436 -2.252,1.203125 1.57214,5.902413 3.15574,11.802704 4.75195,17.699218 0.86675,0.08759 1.73378,0.06107 2.56055,0.06255 -0.8878,-3.276421 -1.80273,-6.664504 -2.56055,-9.480468 -0.85049,-3.160699 -1.10484,-4.277778 -2.49995,-9.484375 z"
         transform="matrix(0.26458334,0,0,0.26458334,0,280.06666)"
         sodipodi:nodetypes="ccccccc" />
      <path
         style="color:#000000;fill:#5b6571;stroke-width:0.794878;stroke-linecap:round;stroke-linejoin:round;-inkscape-stroke:none"
         d="m 40.533202,282.76367 c 0.125845,0.46695 0.25128,0.91752 0.376953,1.38477 0.0497,0.16189 -0.008,0.25407 -0.08984,0.33593 l -4.013671,3.9961 c -0.164621,0.16553 -0.04983,0.44761 0.183593,0.45117 l 1.457032,0.008 c 0.07013,4.5e-4 0.137567,-0.027 0.1875,-0.0762 1.120964,-1.11217 2.242305,-2.22422 3.363281,-3.33789 0.124128,-0.12332 0.301991,-0.3108 0.414062,-0.58594 0.112072,-0.27513 0.149988,-0.63407 0.03516,-1.06445 -0.185191,-0.69407 -0.371515,-1.38966 -0.558594,-2.08398 z"
         id="path114178"
         sodipodi:nodetypes="cccccccssccc" />
      <path
         id="path137050"
         style="color:#000000;fill:#4d545c;fill-opacity:1;stroke-width:0.794878;stroke-linecap:round;stroke-linejoin:round;-inkscape-stroke:none"
         d="m 41.359733,281.79107 c 0.187079,0.69432 0.372915,1.39004 0.558107,2.08411 0.114826,0.43038 0.07693,0.78941 -0.03514,1.06454 -0.112073,0.27514 -0.289801,0.46269 -0.41393,0.58601 -1.120977,1.11367 -2.242138,2.22561 -3.363103,3.33778 -0.04478,0.0431 0.47918,0.0496 0.529166,4e-4 1.120966,-1.11217 2.242127,-2.22411 3.363103,-3.33778 0.12413,-0.12332 0.301858,-0.31087 0.41393,-0.58601 0.11207,-0.27513 0.149966,-0.63416 0.03514,-1.06454 -0.185193,-0.69407 -0.371028,-1.38979 -0.558107,-2.08411 z"
         sodipodi:nodetypes="csssccssccc" />
      <path
         style="color:#000000;fill:#ececec;stroke-width:0.794878;stroke-linecap:round;stroke-linejoin:round;-inkscape-stroke:none"
         d="m 37.074219,288.40039 c -1.190217,-2.7e-4 -2.15039,0.94815 -2.150391,2.11523 -6e-6,1.16712 0.960171,2.11748 2.150391,2.11719 1.095358,-1.2e-4 2.892722,0.0317 4.429687,-0.18945 0.768483,-0.11057 1.473009,-0.27953 2.011719,-0.57227 0.536121,-0.29133 0.924501,-0.75612 0.910156,-1.35547 0.01342,-0.59837 -0.374636,-1.06251 -0.910156,-1.35351 -0.53871,-0.29274 -1.243236,-0.46365 -2.011719,-0.57422 -1.536965,-0.22115 -3.33433,-0.18737 -4.429687,-0.1875 z"
         id="path252207" />
      <path
         style="color:#000000;fill:#3a4d5c;stroke-width:0.794878;stroke-linecap:round;stroke-linejoin:round;-inkscape-stroke:none"
         d="m 44.761719,280.33203 a 0.2645835,0.2645835 0 0 0 -0.1875,0.0762 l -0.619141,0.61328 c -0.122388,0.12159 -0.289128,0.19141 -0.462891,0.19141 h -0.86914 c -0.459368,0 -0.899307,0.18072 -1.22461,0.50391 l -1.34375,1.33398 a 0.2645835,0.2645835 0 0 0 -0.002,0.375 0.2645835,0.2645835 0 0 0 0.375,0.002 l 1.34375,-1.33593 c 0.225888,-0.22442 0.531423,-0.34961 0.851563,-0.34961 h 0.86914 c 0.312989,0 0.614133,-0.1234 0.835938,-0.34375 l 0.619141,-0.61524 a 0.2645835,0.2645835 0 0 0 0,-0.37304 0.2645835,0.2645835 0 0 0 -0.185547,-0.0781 z"
         id="path24124" />
      <path
         id="path188844"
         style="fill:#4d545c;fill-opacity:1;stroke-width:3.00427;stroke-linecap:round;stroke-linejoin:round"
         d="m 126.45117,15.802734 c 0.28233,1.049381 0.59502,2.208629 0.88672,3.292969 1.42221,0.01072 3.5731,-1.293168 3.78711,-3.056643 z"
         transform="matrix(0.26458334,0,0,0.26458334,0,280.06666)"
         sodipodi:nodetypes="cccc" />
      <path
         style="color:#000000;fill:#4895ef;stroke-width:0.794878;stroke-linecap:round;stroke-linejoin:round;-inkscape-stroke:none"
         d="m 33.433619,281.92184 c -0.782117,0 -1.423686,0.63612 -1.423686,1.41594 v 0.89452 a 0.26460996,0.26460996 0 0 0 0.265618,0.26355 h 1.496031 a 0.2645835,0.2645835 0 0 0 0.0088,-0.001 0.2645835,0.2645835 0 0 0 0.0047,0.001 0.2645835,0.2645835 0 0 0 0.287319,-0.23978 c 0.03338,-0.37557 0.361276,-0.65092 0.742075,-0.61753 a 0.26460996,0.26460996 0 0 0 0.02326,0.002 h 1.224732 a 0.2645835,0.2645835 0 0 0 0.02635,-10e-4 0.2645835,0.2645835 0 0 0 0.0088,10e-4 c 0.426275,0 0.77928,-0.3828 0.77928,-0.85938 0,-0.47657 -0.353005,-0.85938 -0.77928,-0.85938 z"
         id="path113792" />
      <path
         style="color:#000000;fill:#cccccc;fill-opacity:1;stroke-width:0.794878;stroke-linecap:round;stroke-linejoin:round;-inkscape-stroke:none"
         d="m 37.016521,289.75 c -0.420067,0 -0.765627,0.34556 -0.765625,0.76562 7e-6,0.42007 0.345564,0.76758 0.765625,0.76758 0.420061,0 0.767571,-0.34751 0.767578,-0.76758 1e-6,-0.42006 -0.347511,-0.76562 -0.767578,-0.76562 z"
         id="path116573" />
      <path
         style="color:#000000;fill:#5b6571;stroke-width:0.794878;stroke-linecap:round;stroke-linejoin:round;-inkscape-stroke:none"
         d="m 36.666016,290.19922 a 0.2645835,0.2645835 0 0 0 0,0.37305 l 2.80664,2.80664 a 0.2645835,0.2645835 0 0 0 0.373047,0 0.2645835,0.2645835 0 0 0 0,-0.375 l -2.806641,-2.80469 a 0.2645835,0.2645835 0 0 0 -0.373046,0 z"
         id="path30149" />
      <path
         style="color:#000000;fill:#4d4d4d;stroke-width:0.794878;stroke-linecap:round;stroke-linejoin:round;-inkscape-stroke:none"
         d="m 39.845703,292.63086 -0.748047,0.74805 a 0.2645835,0.2645835 0 0 0 0,0.375 0.2645835,0.2645835 0 0 0 0.375,0 l 0.748047,-0.75 a 0.2645835,0.2645835 0 0 0 0,-0.37305 0.2645835,0.2645835 0 0 0 -0.375,0 z"
         id="path30203" />
      <path
         style="color:#000000;fill:#4d4d4d;stroke-width:0.794878;stroke-linecap:round;stroke-linejoin:round;-inkscape-stroke:none"
         d="m 44.083984,294.79492 c -0.337821,0 -0.617189,0.27937 -0.617187,0.61719 v 0.70508 c -1.2e-5,0.33783 0.279359,0.61914 0.617187,0.61914 h 1.41211 c 0.337827,0 0.617199,-0.28132 0.617187,-0.61914 v -0.70508 c 2e-6,-0.33782 -0.279366,-0.61719 -0.617187,-0.61719 z"
         id="path117163" />
      <path
         style="color:#000000;fill:#4d4d4d;stroke-width:0.794878;stroke-linecap:round;stroke-linejoin:round;-inkscape-stroke:none"
         d="m 36.5,294.79492 c -0.337821,0 -0.617189,0.27937 -0.617188,0.61719 v 0.70508 c -1.1e-5,0.33783 0.27936,0.61914 0.617188,0.61914 h 1.412109 c 0.337828,0 0.617199,-0.28132 0.617188,-0.61914 v -0.70508 c 2e-6,-0.33782 -0.279367,-0.61719 -0.617188,-0.61719 z"
         id="path116587" />
      <path
         style="color:#000000;fill:#4d4d4d;stroke-width:0.794878;stroke-linecap:round;stroke-linejoin:round;-inkscape-stroke:none"
         d="m 32.443359,294.79492 c -0.337821,0 -0.617189,0.27937 -0.617187,0.61719 v 0.70508 c -1.2e-5,0.33783 0.279359,0.61914 0.617187,0.61914 h 1.410157 c 0.337827,0 0.617199,-0.28132 0.617187,-0.61914 v -0.70508 c 2e-6,-0.33782 -0.279367,-0.61719 -0.617187,-0.61719 z"
         id="path116779" />
      <path
         style="color:#000000;fill:#cccccc;fill-opacity:1;stroke-width:0.794878;stroke-linecap:round;stroke-linejoin:round;-inkscape-stroke:none"
         d="m 43.003906,289.63086 c 0.497438,0 0.894534,0.39337 0.894531,0.88476 3e-6,0.49142 -0.397093,0.88672 -0.894531,0.88672 -0.497437,0 -0.892579,-0.3953 -0.892578,-0.88672 -10e-7,-0.4914 0.395141,-0.88476 0.892578,-0.88476 z"
         id="path115412" />
      <path
         id="path120721"
         style="color:#000000;fill:#333333;fill-opacity:1;stroke-width:0.794878;stroke-linecap:round;stroke-linejoin:round;-inkscape-stroke:none"
         d="m 32.443497,294.79496 c -0.309917,0 -0.570894,0.23517 -0.611849,0.53485 0.02705,-0.004 1.49293,-0.006 1.49293,-0.006 0.33782,0 0.617019,0.27919 0.617016,0.61701 v 0.70539 c 3e-6,0.0286 -0.0023,0.0565 -0.0062,0.0842 0.299916,-0.041 0.535377,-0.30331 0.535366,-0.6134 v -0.70538 c 3e-6,-0.33782 -0.279196,-0.61702 -0.617016,-0.61702 z"
         sodipodi:nodetypes="ccsscccscc" />
      <path
         id="path122951"
         style="color:#000000;fill:#333333;fill-opacity:1;stroke-width:3.00427;stroke-linecap:round;stroke-linejoin:round;-inkscape-stroke:none"
         d="m 141.28906,57.66602 c 1.27681,0 2.33399,1.055231 2.33399,2.332031 v 2.666015 c 0,0.108231 -0.009,0.213715 -0.0234,0.31836 1.13354,-0.15499 2.02348,-1.14638 2.02344,-2.31836 v -2.666015 c 0,-1.2768 -1.05718,-2.332031 -2.33399,-2.332031 l -5.33598,-4e-6 c -1.17134,0 -2.15771,0.888847 -2.3125,2.021484 z"
         transform="matrix(0.26458334,0,0,0.26458334,0,280.06666)"
         sodipodi:nodetypes="cssccssscc" />
      <path
         id="path123855"
         style="color:#000000;fill:#333333;fill-opacity:1;stroke-width:3.00427;stroke-linecap:round;stroke-linejoin:round;-inkscape-stroke:none"
         d="m 169.95312,57.66602 c 1.27681,0 2.334,1.055231 2.33399,2.332031 v 2.666015 c 0,0.108205 -0.009,0.21374 -0.0234,0.31836 1.13321,-0.155306 2.02348,-1.146624 2.02344,-2.31836 v -2.666015 c 1e-5,-1.2768 -1.05718,-2.332031 -2.33399,-2.332031 l -5.33597,-4e-6 c -1.17135,0 -2.15772,0.888847 -2.3125,2.021484 z"
         transform="matrix(0.26458334,0,0,0.26458334,0,280.06666)"
         sodipodi:nodetypes="cssccssscc" />
      <path
         id="path182814"
         style="color:#000000;fill:#4377d1;fill-opacity:1;stroke-width:0.794878;stroke-linecap:round;stroke-linejoin:round;-inkscape-stroke:none"
         d="m 33.433619,281.92184 c -0.528029,0 -0.991921,0.28995 -1.23765,0.71831 0.209037,-0.12016 0.451189,-0.18914 0.708483,-0.18914 h 2.66392 c 0.426276,0 0.77928,0.38281 0.77928,0.85938 0,0.106 -0.01725,0.20721 -0.04909,0.30076 0.330706,-0.0979 0.578258,-0.43093 0.578258,-0.82993 0,-0.47657 -0.353004,-0.85938 -0.77928,-0.85938 z"
         sodipodi:nodetypes="scssscsss" />
      <path
         id="path187784"
         style="color:#000000;fill:#bfbfbf;fill-opacity:1;stroke-width:3.00427;stroke-linecap:round;stroke-linejoin:round;-inkscape-stroke:none"
         d="m 161.53516,36.294922 c 1.38491,0.418203 2.38086,1.684822 2.38086,3.197266 0,1.512535 -0.99595,2.783122 -2.38086,3.203124 0.31529,0.09575 0.65097,0.148438 1,0.148438 1.88008,0 3.38087,-1.494227 3.38086,-3.351562 1e-5,-1.857223 -1.50078,-3.34375 -3.38086,-3.34375 -0.3848,0 -0.73317,0.0616 -1,0.146484 z"
         transform="matrix(0.26458334,0,0,0.26458334,0,280.06666)"
         sodipodi:nodetypes="cscsscc" />
    </g>
  </g>
</svg>
