<?xml version="1.0" encoding="UTF-8" standalone="no"?>
<!-- Created with Inkscape (http://www.inkscape.org/) -->

<svg
   width="80px"
   height="80px"
   viewBox="0 0 22.577778 22.577778"
   version="1.1"
   id="svg831"
   inkscape:version="1.1.1 (3bf5ae0d25, 2021-09-20)"
   sodipodi:docname="Export.svg"
   inkscape:export-filename="C:\Users\User\Desktop\CARLOS PROJECT\5. MAY 1\Done\Flat\13 - Bench Press.png"
   inkscape:export-xdpi="576"
   inkscape:export-ydpi="576"
   xmlns:inkscape="http://www.inkscape.org/namespaces/inkscape"
   xmlns:sodipodi="http://sodipodi.sourceforge.net/DTD/sodipodi-0.dtd"
   xmlns="http://www.w3.org/2000/svg"
   xmlns:svg="http://www.w3.org/2000/svg"
   xmlns:rdf="http://www.w3.org/1999/02/22-rdf-syntax-ns#"
   xmlns:cc="http://creativecommons.org/ns#"
   xmlns:dc="http://purl.org/dc/elements/1.1/">
  <defs
     id="defs825">
    <pattern
       id="EMFhbasepattern"
       patternUnits="userSpaceOnUse"
       width="6"
       height="6"
       x="0"
       y="0" />
    <pattern
       id="EMFhbasepattern-9"
       patternUnits="userSpaceOnUse"
       width="6"
       height="6"
       x="0"
       y="0" />
    <pattern
       id="EMFhbasepattern-0"
       patternUnits="userSpaceOnUse"
       width="6"
       height="6"
       x="0"
       y="0" />
    <pattern
       id="EMFhbasepattern-7"
       patternUnits="userSpaceOnUse"
       width="6"
       height="6"
       x="0"
       y="0" />
    <pattern
       id="EMFhbasepattern-2"
       patternUnits="userSpaceOnUse"
       width="6"
       height="6"
       x="0"
       y="0" />
    <pattern
       id="EMFhbasepattern-98"
       patternUnits="userSpaceOnUse"
       width="6"
       height="6"
       x="0"
       y="0" />
    <pattern
       id="EMFhbasepattern-6"
       patternUnits="userSpaceOnUse"
       width="6"
       height="6"
       x="0"
       y="0" />
    <pattern
       id="EMFhbasepattern-01"
       patternUnits="userSpaceOnUse"
       width="6"
       height="6"
       x="0"
       y="0" />
    <pattern
       id="EMFhbasepattern-07"
       patternUnits="userSpaceOnUse"
       width="6"
       height="6"
       x="0"
       y="0" />
    <pattern
       id="EMFhbasepattern-8"
       patternUnits="userSpaceOnUse"
       width="6"
       height="6"
       x="0"
       y="0" />
    <pattern
       id="EMFhbasepattern-4"
       patternUnits="userSpaceOnUse"
       width="6"
       height="6"
       x="0"
       y="0" />
    <pattern
       id="EMFhbasepattern-40"
       patternUnits="userSpaceOnUse"
       width="6"
       height="6"
       x="0"
       y="0" />
    <pattern
       id="EMFhbasepattern-08"
       patternUnits="userSpaceOnUse"
       width="6"
       height="6"
       x="0"
       y="0" />
    <pattern
       id="EMFhbasepattern-04"
       patternUnits="userSpaceOnUse"
       width="6"
       height="6"
       x="0"
       y="0" />
    <pattern
       id="EMFhbasepattern-014"
       patternUnits="userSpaceOnUse"
       width="6"
       height="6"
       x="0"
       y="0" />
    <pattern
       id="EMFhbasepattern-27"
       patternUnits="userSpaceOnUse"
       width="6"
       height="6"
       x="0"
       y="0" />
    <pattern
       id="EMFhbasepattern-09"
       patternUnits="userSpaceOnUse"
       width="6"
       height="6"
       x="0"
       y="0" />
    <pattern
       id="EMFhbasepattern-5"
       patternUnits="userSpaceOnUse"
       width="6"
       height="6"
       x="0"
       y="0" />
    <pattern
       id="EMFhbasepattern-018"
       patternUnits="userSpaceOnUse"
       width="6"
       height="6"
       x="0"
       y="0" />
  </defs>
  <sodipodi:namedview
     id="base"
     pagecolor="#ffffff"
     bordercolor="#666666"
     borderopacity="1.0"
     inkscape:pageopacity="0.0"
     inkscape:pageshadow="2"
     inkscape:zoom="6.5876941"
     inkscape:cx="28.082664"
     inkscape:cy="49.258511"
     inkscape:document-units="pt"
     inkscape:current-layer="layer1"
     showgrid="false"
     units="pt"
     inkscape:window-width="1920"
     inkscape:window-height="1001"
     inkscape:window-x="-9"
     inkscape:window-y="-9"
     inkscape:window-maximized="1"
     inkscape:pagecheckerboard="true"
     inkscape:showpageshadow="false"
     inkscape:object-paths="true"
     inkscape:snap-intersection-paths="true"
     inkscape:snap-smooth-nodes="true"
     inkscape:snap-midpoints="true"
     showguides="true"
     inkscape:snap-bbox="true"
     inkscape:bbox-nodes="true"
     inkscape:snap-nodes="false"
     inkscape:snap-global="true">
    <inkscape:grid
       type="xygrid"
       id="grid1378" />
    <sodipodi:guide
       position="0.97013831,21.607643"
       orientation="78.000048,0"
       id="guide1380"
       inkscape:locked="false" />
    <sodipodi:guide
       position="0.97013831,0.97013129"
       orientation="0,78.000005"
       id="guide1382"
       inkscape:locked="false" />
    <sodipodi:guide
       position="21.607639,0.97013129"
       orientation="-78.000048,0"
       id="guide1384"
       inkscape:locked="false" />
    <sodipodi:guide
       position="21.607639,21.607643"
       orientation="0,-78.000005"
       id="guide1386"
       inkscape:locked="false" />
  </sodipodi:namedview>
  <metadata
     id="metadata828">
    <rdf:RDF>
      <cc:Work
         rdf:about="">
        <dc:format>image/svg+xml</dc:format>
        <dc:type
           rdf:resource="http://purl.org/dc/dcmitype/StillImage" />
      </cc:Work>
    </rdf:RDF>
  </metadata>
  <g
     inkscape:label="Icon"
     inkscape:groupmode="layer"
     id="layer1"
     transform="translate(0,-274.42223)">
    <g
       id="g614402"
       style="display:inline;stroke-width:0.807654"
       transform="matrix(1.2381541,0,0,1.2381541,-36.961638,-110.84884)">
      <path
         style="color:#000000;fill:#3a4d5c;fill-opacity:1;stroke-width:0.807654;stroke-linecap:round;stroke-linejoin:round;-inkscape-stroke:none"
         d="m 38.439453,323.58984 a 0.26460996,0.26460996 0 0 0 -0.263672,0.26563 v 3.96875 a 0.26460996,0.26460996 0 0 0 0.263672,0.26367 h 1.058594 a 0.26460996,0.26460996 0 0 0 0.265625,-0.26367 v -3.96875 a 0.26460996,0.26460996 0 0 0 -0.265625,-0.26563 z"
         id="path3068" />
      <path
         id="path13894"
         style="color:#000000;fill:#143441;fill-opacity:1;stroke-width:0.807654;stroke-linecap:round;stroke-linejoin:round;-inkscape-stroke:none"
         d="m 38.439514,323.58958 a 0.26460996,0.26460996 0 0 0 -0.263548,0.26614 v 0.79272 h 0.792715 a 0.26460996,0.26460996 0 0 1 0.265618,0.26561 v 3.17397 h 0.263549 a 0.26460996,0.26460996 0 0 0 0.265618,-0.26355 v -3.96875 a 0.26460996,0.26460996 0 0 0 -0.265618,-0.26614 z" />
      <path
         style="color:#000000;fill:#3a4d5c;fill-opacity:1;stroke-width:0.807654;stroke-linecap:round;stroke-linejoin:round;-inkscape-stroke:none"
         d="m 38.96875,315.38867 a 0.2645835,0.2645835 0 0 0 -0.263672,0.26367 v 1.58789 a 0.2645835,0.2645835 0 0 0 0.263672,0.26563 0.2645835,0.2645835 0 0 0 0.265625,-0.26563 v -1.58789 a 0.2645835,0.2645835 0 0 0 -0.265625,-0.26367 z"
         id="path23723" />
      <path
         id="path42433"
         style="color:#000000;fill:#143441;fill-opacity:1;stroke-width:3.05255;stroke-linecap:round;stroke-linejoin:round;-inkscape-stroke:none"
         d="m 147.2832,133.5 a 1.0000006,1.0000006 0 0 0 -0.99609,0.99609 v 3.00586 h 2 v -3.00586 A 1.0000006,1.0000006 0 0 0 147.2832,133.5 Z"
         transform="matrix(0.26458334,0,0,0.26458334,0,280.06666)" />
      <path
         style="color:#000000;fill:#3a4d5c;fill-opacity:1;stroke-width:0.807654;stroke-linecap:round;stroke-linejoin:round;-inkscape-stroke:none"
         d="m 38.175781,313.53711 a 0.26460996,0.26460996 0 0 0 -0.263672,0.26367 v 1.32227 c 5e-6,0.43523 0.357726,0.79492 0.792969,0.79492 h 0.529297 c 0.435237,0 0.792963,-0.35968 0.792969,-0.79492 v -1.32227 a 0.26460996,0.26460996 0 0 0 -0.263672,-0.26367 z"
         id="path3600" />
      <path
         id="path41061"
         style="color:#000000;fill:#143441;fill-opacity:1;stroke-width:0.807654;stroke-linecap:round;stroke-linejoin:round;-inkscape-stroke:none"
         d="m 39.234299,313.53697 a 0.26460996,0.26460996 0 0 1 0.264067,0.26407 v 1.32188 c -8e-6,0.43524 -0.357997,0.7953 -0.793234,0.7953 h 0.529167 c 0.435237,0 0.793226,-0.36006 0.793234,-0.7953 v -1.32188 a 0.26460996,0.26460996 0 0 0 -0.264067,-0.26407 z" />
      <path
         style="color:#000000;fill:#3a4d5c;fill-opacity:1;stroke-width:0.807654;stroke-linecap:round;stroke-linejoin:round;-inkscape-stroke:none"
         d="m 35,312.74219 a 0.26460996,0.26460996 0 0 0 -0.263672,0.26562 v 1.0586 A 0.26460996,0.26460996 0 0 0 35,314.33008 h 2.011719 a 0.26460996,0.26460996 0 0 0 0.265625,-0.25586 l 0.0098,-0.29297 3.46875,-0.0859 0.322266,0.51172 a 0.26460996,0.26460996 0 0 0 0.224609,0.12305 H 42.9375 a 0.26460996,0.26460996 0 0 0 0.265625,-0.26367 v -1.0586 A 0.26460996,0.26460996 0 0 0 42.9375,312.74219 Z"
         id="path2516" />
      <path
         id="path4124"
         style="color:#000000;fill:#3a4d5c;fill-opacity:1;stroke-width:3.05255;stroke-linecap:round;stroke-linejoin:round;-inkscape-stroke:none"
         d="m 129.78906,130.50391 c -0.55228,-0.002 -1.00174,0.44381 -1.0039,0.99609 v 2.99609 c 0,0.56414 -0.43394,1.00586 -0.99805,1.00586 -1.50065,0 -3.0013,0 -4.50195,0 -0.54924,0.002 -0.99396,0.44686 -0.9961,0.9961 -0.002,0.55229 0.44381,1.00175 0.9961,1.0039 h 3.0039 v 4 c 10e-4,0.55 0.4461,0.99591 0.9961,0.99805 0.55305,0.002 1.00283,-0.445 1.0039,-0.99805 v -4.04297 c 1.40992,-0.24222 2.4961,-1.48833 2.4961,-2.96289 V 131.5 c -0.002,-0.54924 -0.44686,-0.99395 -0.9961,-0.99609 z"
         transform="matrix(0.26458334,0,0,0.26458334,0,280.06666)"
         sodipodi:nodetypes="scsccscccsccscs" />
      <path
         style="color:#000000;fill:#ececec;stroke-width:0.807654;stroke-linecap:round;stroke-linejoin:round;-inkscape-stroke:none"
         d="m 31.296875,315.38867 c -0.289107,0 -0.529297,0.24018 -0.529297,0.5293 v 0.5293 c 0,0.28912 0.240178,0.52929 0.529297,0.52929 h 1.058594 c 0.289107,0 0.529297,-0.24017 0.529297,-0.52929 v -0.5293 c 0,-0.28912 -0.240178,-0.5293 -0.529297,-0.5293 z"
         id="path1725" />
      <path
         style="color:#000000;fill:#dc1c4b;stroke-width:0.807654;stroke-linecap:round;stroke-linejoin:round;-inkscape-stroke:none"
         d="m 33.414062,317.24023 c -0.435244,0 -0.794924,0.35968 -0.794921,0.79493 v 1.58593 c -3e-6,0.43525 0.359683,0.79493 0.794921,0.79493 h 0.529297 c 0.435239,0 0.792972,-0.35968 0.792969,-0.79493 v -1.58593 c 3e-6,-0.43525 -0.357724,-0.79493 -0.792969,-0.79493 z"
         id="path4002" />
      <path
         id="path37300"
         style="color:#000000;fill:#143441;fill-opacity:1;stroke-width:3.05255;stroke-linecap:round;stroke-linejoin:round;-inkscape-stroke:none"
         d="M 130.78516,134.45117 V 131.5 c -0.002,-0.54924 -0.44686,-0.99395 -0.9961,-0.99609 -0.55228,-0.002 -1.00174,0.44381 -1.0039,0.99609 v 2.95117 z m -7.5,1.05078 c -0.54924,0.002 -0.99396,0.44686 -0.9961,0.9961 -0.002,0.55229 0.44381,1.00175 0.9961,1.0039 h 3.0039 v -2 z"
         transform="matrix(0.26458334,0,0,0.26458334,0,280.06666)"
         sodipodi:nodetypes="ccsccccscccc" />
      <path
         style="color:#000000;fill:#ececec;stroke-width:0.807654;stroke-linecap:round;stroke-linejoin:round;-inkscape-stroke:none"
         d="m 34.207031,311.94922 c -0.435245,0 -0.792971,0.35772 -0.792969,0.79297 v 1.58789 c -2e-6,0.43524 0.357724,0.79297 0.792969,0.79297 h 0.263672 c 0.435245,0 0.794925,-0.35773 0.794922,-0.79297 v -1.58789 c 3e-6,-0.43525 -0.359677,-0.79297 -0.794922,-0.79297 z"
         id="path2510" />
      <path
         id="path39533"
         style="color:#000000;fill:#143441;fill-opacity:1;stroke-width:3.05255;stroke-linecap:round;stroke-linejoin:round;-inkscape-stroke:none"
         d="M 144.28711,126.50195 A 1.0001006,1.0001006 0 0 0 143.28906,127.5 v 3.00391 h 7.9961 V 127.5 a 1.0001006,1.0001006 0 0 0 -0.99805,-0.99805 z"
         transform="matrix(0.26458334,0,0,0.26458334,0,280.06666)" />
      <path
         id="path2790"
         style="color:#000000;fill:#ececec;stroke-width:3.05255;stroke-linecap:round;stroke-linejoin:round;-inkscape-stroke:none"
         d="m 140.28516,121.49805 c -2.74957,0 -4.99805,2.25433 -4.99805,5.0039 V 176.5 c 0,0.56421 -0.43978,0.99609 -1.00391,0.99609 h -4 c -1.64494,0 -2.99804,1.36086 -2.99804,3.00586 0,1.645 1.3531,2.9961 2.99804,2.9961 h 34 c 1.64495,0 3.00586,-1.3511 3.00586,-2.9961 0,-1.645 -1.36091,-3.00586 -3.00586,-3.00586 h -4 c -0.56412,0 -0.99609,-0.43188 -0.99609,-0.99609 v -49.99805 c 0,-2.74957 -2.24848,-5.0039 -4.99805,-5.0039 z m 1.0039,7.00586 h 11.9961 V 176.5 c 0,0.56421 -0.43197,0.99609 -0.9961,0.99609 h -10.0039 c -0.56413,0 -0.9961,-0.43188 -0.9961,-0.99609 z"
         sodipodi:nodetypes="sssssssssssssssccssssc"
         transform="matrix(0.26458334,0,0,0.26458334,0,280.06666)" />
      <path
         id="path15723"
         style="color:#000000;fill:#3a4d5c;fill-opacity:1;stroke-width:3.05255;stroke-linecap:round;stroke-linejoin:round;-inkscape-stroke:none"
         d="m 166.78711,135.50195 c -0.56411,0 -0.99805,-0.44172 -0.99805,-1.00586 V 131.5 c -0.002,-0.55228 -0.45162,-0.99825 -1.0039,-0.99609 -0.54924,0.002 -0.99396,0.44685 -0.9961,0.99609 v 2.99609 c 0,1.47456 1.08618,2.72067 2.4961,2.96289 v 4.04297 c 0.001,0.55305 0.45085,1.00021 1.0039,0.99805 0.55,-0.002 0.99503,-0.44805 0.9961,-0.99805 v -4 h 3.0039 c 0.55229,-0.002 0.99826,-0.45161 0.9961,-1.0039 -0.002,-0.54924 -0.44686,-0.99396 -0.9961,-0.9961 z"
         transform="matrix(0.26458334,0,0,0.26458334,0,280.06666)"
         sodipodi:nodetypes="cscscsccscccscc" />
      <path
         id="path44591"
         style="color:#000000;fill:#143441;fill-opacity:1;stroke-width:3.05255;stroke-linecap:round;stroke-linejoin:round;-inkscape-stroke:none"
         d="M 165.78906,134.45117 V 131.5 c -0.002,-0.55228 -0.45162,-0.99825 -1.0039,-0.99609 -0.54924,0.002 -0.99396,0.44685 -0.9961,0.99609 v 2.95117 z m 2.4961,1.05078 v 2 h 3.0039 c 0.55229,-0.002 0.99826,-0.45161 0.9961,-1.0039 -0.002,-0.54924 -0.44686,-0.99396 -0.9961,-0.9961 z"
         transform="matrix(0.26458334,0,0,0.26458334,0,280.06666)"
         sodipodi:nodetypes="ccsccccccscc" />
      <path
         style="color:#000000;fill:#ececec;stroke-width:0.807654;stroke-linecap:round;stroke-linejoin:round;-inkscape-stroke:none"
         d="m 45.583984,315.38867 c -0.289119,0 -0.529296,0.24018 -0.529297,0.5293 v 0.5293 c 0,0.28912 0.24019,0.52929 0.529297,0.52929 h 1.058594 c 0.289119,0 0.529297,-0.24017 0.529297,-0.52929 v -0.5293 c 0,-0.28912 -0.24019,-0.5293 -0.529297,-0.5293 z"
         id="path1917" />
      <path
         style="color:#000000;fill:#dc1c4b;stroke-width:0.807654;stroke-linecap:round;stroke-linejoin:round;-inkscape-stroke:none"
         d="m 43.996094,317.24023 c -0.435245,0 -0.792972,0.35968 -0.792969,0.79493 v 1.58593 c -3e-6,0.43525 0.35773,0.79493 0.792969,0.79493 h 0.529297 c 0.435238,0 0.794924,-0.35968 0.794921,-0.79493 v -1.58593 c 3e-6,-0.43525 -0.359676,-0.79493 -0.794921,-0.79493 z"
         id="path3810" />
      <path
         style="color:#000000;fill:#ececec;stroke-width:0.807654;stroke-linecap:round;stroke-linejoin:round;-inkscape-stroke:none"
         d="m 43.466797,311.94922 c -0.435245,0 -0.792972,0.35773 -0.792969,0.79297 v 1.58789 c -3e-6,0.43524 0.357724,0.79297 0.792969,0.79297 h 0.265625 c 0.435245,0 0.792972,-0.35773 0.792969,-0.79297 v -1.58789 c 3e-6,-0.43524 -0.357724,-0.79297 -0.792969,-0.79297 z"
         id="path2127" />
      <path
         id="path12542"
         style="color:#000000;fill:#cccccc;fill-opacity:1;stroke-width:3.05255;stroke-linecap:round;stroke-linejoin:round;-inkscape-stroke:none"
         d="M 139.28906,128.50391 V 178.5 c 0,0.56421 0.43196,0.99609 0.9961,0.99609 h 12.0039 c 0.56413,0 0.9961,-0.43188 0.9961,-0.99609 v -2 c 0,0.56421 -0.43197,0.99609 -0.9961,0.99609 h -10.0039 c -0.6845,0 -0.99621,-0.54582 -0.99621,-0.99629 v -47.99589 z"
         transform="matrix(0.26458334,0,0,0.26458334,0,280.06666)"
         sodipodi:nodetypes="csssscscccc" />
      <path
         style="color:#000000;fill:#cccccc;fill-opacity:1;stroke-width:0.807654;stroke-linecap:round;stroke-linejoin:round;-inkscape-stroke:none"
         d="m 37.117117,312.21302 c -0.498669,0 -0.934961,0.28031 -1.160137,0.69091 0.187817,-0.10298 0.402808,-0.16174 0.630969,-0.16174 h 3.7052 c 0.72749,0 1.3224,0.59645 1.3224,1.32395 v 13.22865 c 0,0.14928 0.114295,0.26355 0.263549,0.26355 h 1.058333 c 0.435227,0 0.795301,0.36006 0.795301,0.7953 0,0.0796 -0.0123,0.15627 -0.03462,0.22892 0.3244,-0.0998 0.56379,-0.40315 0.56379,-0.75809 0,-0.43524 -0.360074,-0.7953 -0.795301,-0.7953 h -1.058333 c -0.149254,0 -0.263549,-0.11427 -0.263549,-0.26355 v -13.22865 c 0,-0.7275 -0.59491,-1.32395 -1.322401,-1.32395 z"
         id="path11305" />
      <path
         style="color:#000000;fill:#dc1c4b;stroke-width:0.807654;stroke-linecap:round;stroke-linejoin:round;-inkscape-stroke:none"
         d="m 35.265625,321.47461 c -0.435225,0 -0.794922,0.35773 -0.794922,0.79297 0,0.43525 0.359703,0.79297 0.794922,0.79297 h 7.408203 c 0.435225,0 0.792969,-0.35773 0.792969,-0.79297 0,-0.43524 -0.357744,-0.79297 -0.792969,-0.79297 z"
         id="path4194" />
      <path
         style="color:#000000;fill:#3a4d5c;fill-opacity:1;stroke-width:0.807654;stroke-linecap:round;stroke-linejoin:round;-inkscape-stroke:none"
         d="m 37.912109,323.58984 a 0.2645835,0.2645835 0 0 0 -0.265625,0.26563 0.2645835,0.2645835 0 0 0 0.265625,0.26367 h 2.115235 a 0.2645835,0.2645835 0 0 0 0.265625,-0.26367 0.2645835,0.2645835 0 0 0 -0.265625,-0.26563 z"
         id="path19434" />
      <path
         style="color:#000000;fill:#dc1c4b;stroke-width:0.807654;stroke-linecap:round;stroke-linejoin:round;-inkscape-stroke:none"
         d="m 38.351562,316.97656 h 1.234375 c 0.550603,0 0.970708,0.39859 0.970704,0.86914 v 1.70117 c -5e-6,0.47055 -0.420108,0.86915 -0.970704,0.86915 h -1.234375 c -0.550594,0 -0.968745,-0.3986 -0.96875,-0.86915 v -1.70117 c -4e-6,-0.47055 0.418149,-0.86914 0.96875,-0.86914 z"
         id="path3273" />
      <path
         id="path5231"
         style="color:#000000;fill:#cccccc;fill-opacity:1;stroke-width:0.807654;stroke-linecap:round;stroke-linejoin:round;-inkscape-stroke:none"
         d="m 31.296799,315.38854 c -0.288941,0 -0.528889,0.24027 -0.529167,0.52916 h 1.058849 c 0.289121,0 0.529167,0.24057 0.529167,0.52969 v 0.52916 c 0.289108,0 0.529167,-0.24004 0.529167,-0.52916 v -0.52917 c 0,-0.28912 -0.240046,-0.52968 -0.529167,-0.52968 z" />
      <path
         id="path7032"
         style="color:#000000;fill:#cccccc;fill-opacity:1;stroke-width:0.807654;stroke-linecap:round;stroke-linejoin:round;-inkscape-stroke:none"
         d="m 34.186544,311.94947 c -0.346726,0.009 -0.640477,0.24483 -0.737939,0.56327 0.07266,-0.0222 0.149894,-0.0341 0.229444,-0.0341 h 0.263549 c 0.435245,0 0.794787,0.35747 0.794784,0.79272 v 1.58802 c 0,0.0795 -0.01233,0.15626 -0.03462,0.22892 0.324519,-0.0997 0.563793,-0.40301 0.56379,-0.75809 v -1.58802 c 3e-6,-0.43525 -0.35954,-0.79271 -0.794785,-0.79271 z"
         sodipodi:nodetypes="ccsscsccccc" />
      <path
         id="path8443"
         style="color:#000000;fill:#cccccc;fill-opacity:1;stroke-width:0.807654;stroke-linecap:round;stroke-linejoin:round;-inkscape-stroke:none"
         d="m 43.446445,311.94947 c -0.346726,0.009 -0.640993,0.24484 -0.738455,0.56327 0.0728,-0.0223 0.14972,-0.0341 0.229441,-0.0341 h 0.265618 c 0.435245,0 0.793237,0.35747 0.793234,0.79271 v 1.58802 c 0,0.0797 -0.01233,0.15664 -0.03462,0.22944 0.324887,-0.0992 0.563792,-0.40291 0.56379,-0.75861 v -1.58801 c 2e-6,-0.43524 -0.357989,-0.79272 -0.793234,-0.79272 z"
         sodipodi:nodetypes="ccsssscsscc" />
      <path
         id="path10088"
         style="color:#000000;fill:#cccccc;fill-opacity:1;stroke-width:0.807654;stroke-linecap:round;stroke-linejoin:round;-inkscape-stroke:none"
         d="m 45.583783,315.38854 c -0.288951,0 -0.528889,0.24027 -0.529167,0.52916 h 1.05885 c 0.289107,0 0.529166,0.24057 0.529166,0.52969 v 0.52916 c 0.289119,0 0.529167,-0.24004 0.529167,-0.52916 v -0.52917 c 0,-0.28912 -0.240059,-0.52968 -0.529167,-0.52968 z" />
      <path
         id="path12544"
         style="color:#000000;fill:#cccccc;fill-opacity:1;stroke-width:3.05255;stroke-linecap:round;stroke-linejoin:round;-inkscape-stroke:none"
         d="m 135.28711,176.5 c 0,0.56421 -0.43978,0.99609 -1.00391,0.99609 h -4 c -1.47507,0 -2.55541,1.05088 -2.85058,2.12959 0.27689,-0.11102 0.56927,-0.127 0.84985,-0.127 h 6 32.81836 c -0.41951,-1.1578 -1.52602,-2.00196 -2.81836,-2.00196 h -4 -7.99414 -10.0039 -6.99805 z"
         transform="matrix(0.26458334,0,0,0.26458334,0,280.06666)"
         sodipodi:nodetypes="cscccccsccccc" />
      <path
         id="path27951"
         style="color:#000000;fill:#b01d47;fill-opacity:1;stroke-width:0.807654;stroke-linecap:round;stroke-linejoin:round;-inkscape-stroke:none"
         d="m 35.265549,321.47447 c -0.355834,0 -0.660602,0.2392 -0.760161,0.56431 0.07324,-0.0225 0.150865,-0.0351 0.230994,-0.0351 h 7.408334 c 0.435223,0 0.792715,0.35799 0.792715,0.79323 0,0.0797 -0.01183,0.15665 -0.0341,0.22944 0.324649,-0.0994 0.563272,-0.40308 0.563272,-0.75861 0,-0.43524 -0.357492,-0.79323 -0.792716,-0.79323 z" />
      <path
         id="path31156"
         style="color:#000000;fill:#b01d47;fill-opacity:1;stroke-width:0.807654;stroke-linecap:round;stroke-linejoin:round;-inkscape-stroke:none"
         d="m 33.413982,317.2401 c -0.354939,0 -0.659295,0.23948 -0.759643,0.56379 0.07306,-0.0225 0.150566,-0.0346 0.230476,-0.0346 h 0.529167 c 0.435244,0 0.793236,0.36005 0.793234,0.7953 v 1.58595 c 0,0.0803 -0.01255,0.15763 -0.03514,0.23099 0.325102,-0.0995 0.564309,-0.40482 0.564306,-0.76068 v -1.58543 c 3e-6,-0.43525 -0.357989,-0.7953 -0.793234,-0.7953 z" />
      <path
         id="path33542"
         style="color:#000000;fill:#b01d47;fill-opacity:1;stroke-width:0.807654;stroke-linecap:round;stroke-linejoin:round;-inkscape-stroke:none"
         d="m 38.351665,316.97655 c -0.442328,0 -0.799187,0.25741 -0.922425,0.60255 0.119063,-0.047 0.251905,-0.0734 0.393258,-0.0734 h 1.234033 c 0.550603,0 0.971005,0.39865 0.971002,0.8692 v 1.70119 c -3e-6,0.0922 -0.01643,0.18139 -0.04651,0.26561 0.344125,-0.13653 0.57567,-0.44573 0.575675,-0.79478 v -1.70119 c 2e-6,-0.47055 -0.420399,-0.8692 -0.971003,-0.8692 z" />
      <path
         id="path35460"
         style="color:#000000;fill:#b01d47;fill-opacity:1;stroke-width:0.807654;stroke-linecap:round;stroke-linejoin:round;-inkscape-stroke:none"
         d="m 43.996283,317.2401 c -0.354941,0 -0.658225,0.23948 -0.758095,0.56379 0.07254,-0.0222 0.149532,-0.0346 0.228928,-0.0346 h 0.529167 c 0.435245,0 0.794784,0.36005 0.794782,0.7953 v 1.58595 c 0,0.0803 -0.01244,0.15763 -0.03514,0.23099 0.324861,-0.10001 0.564309,-0.40534 0.564306,-0.76068 v -1.58543 c 3e-6,-0.43525 -0.359537,-0.7953 -0.794781,-0.7953 z" />
    </g>
  </g>
</svg>
