<?xml version="1.0" encoding="UTF-8" standalone="no"?>
<!-- Created with Inkscape (http://www.inkscape.org/) -->

<svg
   width="40px"
   height="40px"
   viewBox="0 0 22.577778 22.577778"
   version="1.1"
   id="svg831"
   inkscape:version="1.1.1 (3bf5ae0d25, 2021-09-20)"
   sodipodi:docname="Export.svg"
   inkscape:export-filename="C:\Users\User\Desktop\CARLOS PROJECT\5. MAY 1\Done\Flat\15 - Gym Building.png"
   inkscape:export-xdpi="576"
   inkscape:export-ydpi="576"
   xmlns:inkscape="http://www.inkscape.org/namespaces/inkscape"
   xmlns:sodipodi="http://sodipodi.sourceforge.net/DTD/sodipodi-0.dtd"
   xmlns="http://www.w3.org/2000/svg"
   xmlns:svg="http://www.w3.org/2000/svg"
   xmlns:rdf="http://www.w3.org/1999/02/22-rdf-syntax-ns#"
   xmlns:cc="http://creativecommons.org/ns#"
   xmlns:dc="http://purl.org/dc/elements/1.1/">
  <defs
     id="defs825">
    <pattern
       id="EMFhbasepattern"
       patternUnits="userSpaceOnUse"
       width="6"
       height="6"
       x="0"
       y="0" />
    <pattern
       id="EMFhbasepattern-9"
       patternUnits="userSpaceOnUse"
       width="6"
       height="6"
       x="0"
       y="0" />
    <pattern
       id="EMFhbasepattern-0"
       patternUnits="userSpaceOnUse"
       width="6"
       height="6"
       x="0"
       y="0" />
    <pattern
       id="EMFhbasepattern-7"
       patternUnits="userSpaceOnUse"
       width="6"
       height="6"
       x="0"
       y="0" />
    <pattern
       id="EMFhbasepattern-2"
       patternUnits="userSpaceOnUse"
       width="6"
       height="6"
       x="0"
       y="0" />
    <pattern
       id="EMFhbasepattern-98"
       patternUnits="userSpaceOnUse"
       width="6"
       height="6"
       x="0"
       y="0" />
    <pattern
       id="EMFhbasepattern-6"
       patternUnits="userSpaceOnUse"
       width="6"
       height="6"
       x="0"
       y="0" />
    <pattern
       id="EMFhbasepattern-01"
       patternUnits="userSpaceOnUse"
       width="6"
       height="6"
       x="0"
       y="0" />
    <pattern
       id="EMFhbasepattern-07"
       patternUnits="userSpaceOnUse"
       width="6"
       height="6"
       x="0"
       y="0" />
    <pattern
       id="EMFhbasepattern-8"
       patternUnits="userSpaceOnUse"
       width="6"
       height="6"
       x="0"
       y="0" />
    <pattern
       id="EMFhbasepattern-4"
       patternUnits="userSpaceOnUse"
       width="6"
       height="6"
       x="0"
       y="0" />
    <pattern
       id="EMFhbasepattern-40"
       patternUnits="userSpaceOnUse"
       width="6"
       height="6"
       x="0"
       y="0" />
    <pattern
       id="EMFhbasepattern-08"
       patternUnits="userSpaceOnUse"
       width="6"
       height="6"
       x="0"
       y="0" />
    <pattern
       id="EMFhbasepattern-04"
       patternUnits="userSpaceOnUse"
       width="6"
       height="6"
       x="0"
       y="0" />
    <pattern
       id="EMFhbasepattern-014"
       patternUnits="userSpaceOnUse"
       width="6"
       height="6"
       x="0"
       y="0" />
    <pattern
       id="EMFhbasepattern-27"
       patternUnits="userSpaceOnUse"
       width="6"
       height="6"
       x="0"
       y="0" />
    <pattern
       id="EMFhbasepattern-09"
       patternUnits="userSpaceOnUse"
       width="6"
       height="6"
       x="0"
       y="0" />
    <pattern
       id="EMFhbasepattern-5"
       patternUnits="userSpaceOnUse"
       width="6"
       height="6"
       x="0"
       y="0" />
    <pattern
       id="EMFhbasepattern-018"
       patternUnits="userSpaceOnUse"
       width="6"
       height="6"
       x="0"
       y="0" />
  </defs>
  <sodipodi:namedview
     id="base"
     pagecolor="#ffffff"
     bordercolor="#666666"
     borderopacity="1.0"
     inkscape:pageopacity="0.0"
     inkscape:pageshadow="2"
     inkscape:zoom="6.5876941"
     inkscape:cx="25.198499"
     inkscape:cy="49.258511"
     inkscape:document-units="pt"
     inkscape:current-layer="layer1"
     showgrid="false"
     units="pt"
     inkscape:window-width="1920"
     inkscape:window-height="1001"
     inkscape:window-x="-9"
     inkscape:window-y="-9"
     inkscape:window-maximized="1"
     inkscape:pagecheckerboard="true"
     inkscape:showpageshadow="false"
     inkscape:object-paths="true"
     inkscape:snap-intersection-paths="true"
     inkscape:snap-smooth-nodes="true"
     inkscape:snap-midpoints="true"
     showguides="true"
     inkscape:snap-bbox="true"
     inkscape:bbox-nodes="true"
     inkscape:snap-nodes="false"
     inkscape:snap-global="true">
    <inkscape:grid
       type="xygrid"
       id="grid1378" />
    <sodipodi:guide
       position="0.97013831,21.607643"
       orientation="78.000048,0"
       id="guide1380"
       inkscape:locked="false" />
    <sodipodi:guide
       position="0.97013831,0.97013129"
       orientation="0,78.000005"
       id="guide1382"
       inkscape:locked="false" />
    <sodipodi:guide
       position="21.607639,0.97013129"
       orientation="-78.000048,0"
       id="guide1384"
       inkscape:locked="false" />
    <sodipodi:guide
       position="21.607639,21.607643"
       orientation="0,-78.000005"
       id="guide1386"
       inkscape:locked="false" />
  </sodipodi:namedview>
  <metadata
     id="metadata828">
    <rdf:RDF>
      <cc:Work
         rdf:about="">
        <dc:format>image/svg+xml</dc:format>
        <dc:type
           rdf:resource="http://purl.org/dc/dcmitype/StillImage" />
      </cc:Work>
    </rdf:RDF>
  </metadata>
  <g
     inkscape:label="Icon"
     inkscape:groupmode="layer"
     id="layer1"
     transform="translate(0,-274.42223)">
    <g
       id="g158928"
       style="display:inline;stroke-width:0.794806"
       transform="matrix(1.258168,0,0,1.258168,77.391866,-150.5488)">
      <path
         style="color:#000000;fill:#dc1c4b;fill-opacity:1;stroke-width:0.794806;stroke-linecap:round;stroke-linejoin:round;-inkscape-stroke:none"
         d="m -58.095703,342.50781 c -1.458109,0 -2.644531,1.18839 -2.644531,2.64649 v 3.96875 c 0,0.72748 0.594785,1.32226 1.322265,1.32226 h 13.757813 c 0.72748,0 1.322265,-0.59478 1.322265,-1.32226 v -3.96875 c 0,-1.4581 -1.186422,-2.64649 -2.644531,-2.64649 z"
         id="path485057" />
      <path
         id="path30786"
         style="color:#000000;fill:#b01d47;fill-opacity:1;stroke-width:3.00399;stroke-linecap:round;stroke-linejoin:round;-inkscape-stroke:none"
         d="m -189.57422,235.99805 v 15 c -0.002,0.55532 0.44859,1.00602 1.00391,1.0039 h 4 c 0.55226,-0.002 0.99819,-0.45164 0.99609,-1.0039 v -15 z"
         transform="matrix(0.26458334,0,0,0.26458334,0,280.06666)"
         sodipodi:nodetypes="ccccccc" />
      <path
         id="path29960"
         style="color:#000000;fill:#b01d47;fill-opacity:1;stroke-width:3.00399;stroke-linecap:round;stroke-linejoin:round;-inkscape-stroke:none"
         d="m -209.57227,235.99805 v 11 a 1.0001006,1.0001006 0 0 0 0.9961,1.0039 h 4.00195 a 1.0001006,1.0001006 0 0 0 1.00391,-1.0039 v -11 z"
         transform="matrix(0.26458334,0,0,0.26458334,0,280.06666)" />
      <path
         id="path17860"
         style="color:#000000;fill:#b01d47;fill-opacity:1;stroke-width:3.00399;stroke-linecap:round;stroke-linejoin:round;-inkscape-stroke:none"
         d="m -219.57422,235.99805 c -3.26024,0 -6.1587,1.57303 -7.98437,3.99804 1.6696,-1.25374 3.74161,-1.99804 5.98437,-1.99804 h 42.00195 c 5.51097,0 9.9961,4.49102 9.9961,10.00195 v 15 c 0,0.86233 -0.22102,1.67693 -0.60938,2.38672 1.55133,-0.85053 2.60938,-2.50104 2.60938,-4.38672 v -15 c 0,-5.51093 -4.48513,-10.00195 -9.9961,-10.00195 z"
         transform="matrix(0.26458334,0,0,0.26458334,0,280.06666)" />
      <path
         id="path34880"
         style="color:#000000;fill:#b01d47;fill-opacity:1;stroke-width:3.00399;stroke-linecap:round;stroke-linejoin:round;-inkscape-stroke:none"
         d="m -204.87695,250.4375 c -2.39656,0 -4.0513,1.56387 -5.12305,3.49805 h -0.37695 c -2.98452,0 -4.96315,2.29 -5.69141,4.98242 -2.42944,0.60729 -4.28906,2.58143 -4.28906,5.08008 v 2 h 47.7832 c 2.74953,0 4.99805,-2.24852 4.99805,-4.99805 v -1.26172 c -0.56531,-0.36932 -1.20589,-0.64914 -1.89063,-0.82031 -0.72826,-2.69242 -2.70689,-4.98242 -5.6914,-4.98242 h -0.375 c -1.07175,-1.93414 -2.72646,-3.49805 -5.12305,-3.49805 h -1.83203 c -3.10015,0 -5.39648,2.65005 -5.39649,5.56641 v 1.75586 c -0.77624,0.35641 -1.41867,0.70284 -1.95507,1.35742 l -0.0664,-0.0215 a 2.5635161,2.5635161 0 0 0 -0.008,0 c -0.34016,-0.10469 -0.69289,-0.15467 -1.04883,-0.15429 h -3.60938 c -0.35595,-3.1e-4 -0.70865,0.0496 -1.04882,0.15429 a 2.5635161,2.5635161 0 0 0 -0.006,0 l -0.0664,0.0215 c -0.53679,-0.65337 -1.1812,-1.00188 -1.95703,-1.35742 v -1.75586 c 0,-2.91636 -2.29634,-5.56641 -5.39649,-5.56641 z"
         transform="matrix(0.26458334,0,0,0.26458334,0,280.06666)" />
      <path
         id="path18499"
         style="color:#000000;fill:#b01d47;fill-opacity:1;stroke-width:0.794806;stroke-linecap:round;stroke-linejoin:round;-inkscape-stroke:none"
         d="m -44.337891,347.27134 v 1.85157 c 0,0.72748 -0.594918,1.3224 -1.322398,1.3224 h -3.560508 v -1.3224 a 0.26460996,0.26460996 0 0 1 0.265617,-0.26562 h 1.97249 c 0.286245,0 0.563576,-0.27882 0.734322,-0.61908 0.275048,-0.54809 0.853829,-0.96687 1.646412,-0.96687 z" />
      <path
         id="path24759"
         style="color:#000000;fill:#801231;fill-opacity:1;stroke-width:3.00399;stroke-linecap:round;stroke-linejoin:round;-inkscape-stroke:none"
         d="m -169.62873,265.03111 c 1.35219,-1.01533 2.05332,-2.38491 2.05332,-4.03175 v -6.99805 l -0.99881,6.4e-4 c -0.34532,0 -0.67863,0.0221 -1.00195,0.0625 V 263 Z"
         transform="matrix(0.26458334,0,0,0.26458334,0,280.06666)"
         sodipodi:nodetypes="ccccccc" />
      <path
         id="path485809"
         style="color:#000000;fill:#b01d47;fill-opacity:1;stroke-width:3.00399;stroke-linecap:round;stroke-linejoin:round;-inkscape-stroke:none"
         d="M -229.57031,254.00195 V 261 c 0,2.74953 2.24851,4.99805 4.99804,4.99805 h 13.45704 V 261 a 1.0001006,1.0001006 0 0 0 -1.00391,-1.00391 h -7.45508 c -1.08187,0 -2.13005,-1.05382 -2.77539,-2.33984 -1.03955,-2.07152 -3.22707,-3.6543 -6.22266,-3.6543 z"
         transform="matrix(0.26458334,0,0,0.26458334,0,280.06666)" />
      <path
         id="path33000"
         style="fill:#801231;fill-opacity:1;stroke-width:3.00399;stroke-linecap:round;stroke-linejoin:round"
         d="m -218.32031,259.99609 c -1.23593,0.94949 -2.03711,2.36318 -2.03711,4.00196 v 2 h 9.24219 V 261 a 1.0001006,1.0001006 0 0 0 -1.00391,-1.00391 z"
         transform="matrix(0.26458334,0,0,0.26458334,0,280.06666)" />
      <path
         style="color:#000000;fill:#c8dae5;stroke-width:0.794806;stroke-linecap:round;stroke-linejoin:round;-inkscape-stroke:none"
         d="m -56.875,349.12305 c -0.423871,0 -0.75,0.36965 -0.75,0.79297 v 0.79492 c 0,0.42331 0.326122,0.79297 0.75,0.79297 h 0.484375 a 0.26460996,0.26460996 0 0 0 0.265625,-0.26368 v -1.85351 a 0.26460996,0.26460996 0 0 0 -0.265625,-0.26367 z"
         id="path486401" />
      <path
         style="color:#000000;fill:#ececec;fill-opacity:1;stroke-width:0.794806;stroke-linecap:round;stroke-linejoin:round;-inkscape-stroke:none"
         d="m -51.287109,340.12695 a 0.26460996,0.26460996 0 0 0 -0.263672,0.26172 l -0.0098,1.07422 a 0.26460996,0.26460996 0 0 0 0.222656,0.26172 c 0.375705,0.0616 0.650391,0.38182 0.650391,0.7832 v 2.91016 a 0.26460996,0.26460996 0 0 0 0.265625,0.26562 h 1.058594 a 0.26460996,0.26460996 0 0 0 0.263672,-0.26562 v -3.17383 c 0,-0.48507 -0.22847,-0.99622 -0.609375,-1.4043 -0.380906,-0.40807 -0.930895,-0.71289 -1.578125,-0.71289 z"
         id="path485473" />
      <path
         style="color:#000000;fill:#ececec;fill-opacity:1;stroke-width:0.794806;stroke-linecap:round;stroke-linejoin:round;-inkscape-stroke:none"
         d="m -53.791016,340.12695 c -0.647229,0 -1.197219,0.30482 -1.578125,0.71289 -0.380905,0.40808 -0.609375,0.91923 -0.609375,1.4043 v 3.17383 a 0.26460996,0.26460996 0 0 0 0.263672,0.26562 h 1.058594 a 0.26460996,0.26460996 0 0 0 0.265625,-0.26562 v -2.91016 c 0,-0.40138 0.274687,-0.72158 0.650391,-0.7832 a 0.26460996,0.26460996 0 0 0 0.222656,-0.26172 l -0.0098,-1.07422 a 0.26460996,0.26460996 0 0 0 -0.263672,-0.26172 z"
         id="path485249" />
      <path
         style="color:#000000;fill:#b01d47;fill-opacity:1;stroke-width:0.794806;stroke-linecap:round;stroke-linejoin:round;-inkscape-stroke:none"
         d="m -55.714844,345.1543 c -0.435236,0 -0.79297,0.35773 -0.792968,0.79297 v 2.11718 a 0.26460996,0.26460996 0 0 0 0.263671,0.26563 h 7.410157 a 0.26460996,0.26460996 0 0 0 0.263672,-0.26563 v -2.11718 c 0,-0.43524 -0.357733,-0.79297 -0.792969,-0.79297 z"
         id="path485697" />
      <path
         id="path36018"
         style="color:#000000;fill:#801231;fill-opacity:1;stroke-width:3.00399;stroke-linecap:round;stroke-linejoin:round;-inkscape-stroke:none"
         d="m -204.87695,250.4375 c -2.39656,0 -4.0513,1.56387 -5.12305,3.49805 h -0.37695 c -1.248,0 -2.31697,0.40358 -3.19532,1.0664 V 257 a 1.0001006,1.0001006 0 0 0 0.9961,1.00391 h 15.42969 c -0.16242,-0.0834 -0.32831,-0.16367 -0.50391,-0.24414 v -1.75586 c 0,-2.91636 -2.29633,-5.56641 -5.39649,-5.56641 z m 21.30468,0.11328 c -2.53587,0.53224 -4.31249,2.88899 -4.3125,5.45313 v 1.75586 c -0.17569,0.0807 -0.34159,0.1608 -0.5039,0.24414 h 3.81836 A 1.0001006,1.0001006 0 0 0 -183.57227,257 Z"
         transform="matrix(0.26458334,0,0,0.26458334,0,280.06666)" />
      <path
         style="color:#000000;fill:#c8dae5;stroke-width:0.794806;stroke-linecap:round;stroke-linejoin:round;-inkscape-stroke:none"
         d="m -51.480469,349.25586 a 0.26460996,0.26460996 0 0 0 -0.07813,0.0117 l -0.853515,0.26367 a 0.26460996,0.26460996 0 0 0 -0.185547,0.25391 v 1.05664 a 0.26460996,0.26460996 0 0 0 0.185547,0.2539 l 0.853515,0.26367 a 0.26460996,0.26460996 0 0 0 0.07813,0.0117 h 0.955078 a 0.26460996,0.26460996 0 0 0 0.07813,-0.0117 l 0.853516,-0.26367 a 0.26460996,0.26460996 0 0 0 0.185547,-0.2539 v -1.05664 a 0.26460996,0.26460996 0 0 0 -0.185547,-0.25391 l -0.853516,-0.26367 a 0.26460996,0.26460996 0 0 0 -0.07813,-0.0117 z"
         id="path486435" />
      <path
         id="path14962"
         style="color:#000000;fill:#b0c3d3;fill-opacity:1;stroke-width:0.794806;stroke-linecap:round;stroke-linejoin:round;-inkscape-stroke:none"
         d="m -50.447052,351.35914 0.853178,-0.26355 c 0.111,-0.0348 0.186283,-0.13794 0.185521,-0.25425 v -1.05679 c 5.33e-4,-0.11612 -0.07471,-0.21902 -0.185521,-0.25373 l -0.853178,-0.26354 c -0.02544,-0.008 -0.05192,-0.0119 -0.07855,-0.0119 l -0.954979,3.4e-4 c -0.02646,4e-5 -0.05276,0.004 -0.07803,0.0119 l -0.853694,0.26355 c -0.110814,0.0347 -0.186052,0.13761 -0.185518,0.25373 v 0.008 c 0.01927,-0.005 0.03903,-0.008 0.05891,-0.008 h 0.954982 c 0.02663,-10e-6 0.05311,0.004 0.07855,0.0119 l 0.853178,0.26355 c 0.110816,0.0347 0.186054,0.13761 0.185521,0.25373 z"
         sodipodi:nodetypes="cccccccccccccccccc" />
      <path
         style="color:#000000;fill:#b0c3d3;stroke-width:0.794806;stroke-linecap:round;stroke-linejoin:round;-inkscape-stroke:none"
         d="m -53.236328,348.72656 a 0.26460996,0.26460996 0 0 0 -0.265625,0.26367 v 2.64649 a 0.26460996,0.26460996 0 0 0 0.265625,0.26367 h 0.373047 c 0.435244,0 0.794922,-0.35773 0.794922,-0.79297 v -1.58789 c 0,-0.43524 -0.359678,-0.79297 -0.794922,-0.79297 z"
         id="path486441" />
      <path
         id="path12764"
         style="color:#000000;fill:#97abba;fill-opacity:1;stroke-width:0.794806;stroke-linecap:round;stroke-linejoin:round;-inkscape-stroke:none"
         d="m -53.236544,348.72655 a 0.26460996,0.26460996 0 0 0 -0.265618,0.26355 v 0.26562 h 0.109554 c 0.435245,0 0.7953,0.35799 0.7953,0.79323 v 1.5875 c 0,0.0793 -0.01193,0.15645 -0.03411,0.22893 0.324088,-0.10001 0.563274,-0.40332 0.563274,-0.75809 v -1.5875 c 0,-0.43524 -0.360056,-0.79324 -0.795301,-0.79324 z" />
      <path
         id="path10374"
         style="color:#000000;fill:#b0c3d3;fill-opacity:1;stroke-width:0.794806;stroke-linecap:round;stroke-linejoin:round;-inkscape-stroke:none"
         d="m -56.875083,349.12291 c -0.332253,0 -0.604269,0.2271 -0.706417,0.52917 h 0.132292 a 0.26460996,0.26460996 0 0 1 0.265618,0.26407 v 1.51773 c 0.09344,0.045 0.197591,0.0703 0.308507,0.0703 h 0.484208 a 0.26460996,0.26460996 0 0 0 0.265618,-0.26407 V 349.387 a 0.26460996,0.26460996 0 0 0 -0.265618,-0.26407 z" />
      <path
         style="color:#000000;fill:#394d5c;stroke-width:0.794806;stroke-linecap:round;stroke-linejoin:round;-inkscape-stroke:none"
         d="m -55.662109,347.93164 c -0.557834,0 -0.992188,0.48914 -0.992188,1.05859 v 2.64649 c 0,0.56945 0.43435,1.05859 0.992188,1.05859 h 0.242187 c 0.42389,0 0.75,-0.37159 0.75,-0.79492 v -3.17383 c 0,-0.42332 -0.32611,-0.79492 -0.75,-0.79492 z"
         id="path486453" />
      <path
         id="path1837"
         style="color:#000000;fill:#143441;fill-opacity:1;stroke-width:0.794806;stroke-linecap:round;stroke-linejoin:round;-inkscape-stroke:none"
         d="m -55.688075,347.93177 c -0.359842,0.01 -0.665197,0.22391 -0.831475,0.52917 h 0.04134 c 0.423892,0 0.749827,0.37146 0.749827,0.79478 v 3.17397 c 0,0.0898 -0.01468,0.17732 -0.04186,0.25941 0.03549,0.004 0.07137,0.006 0.108006,0.006 h 0.242361 c 0.423891,0 0.749826,-0.37145 0.749826,-0.79478 v -3.17397 c 0,-0.42332 -0.325935,-0.79478 -0.749826,-0.79478 z"
         sodipodi:nodetypes="ccssscsssscc" />
      <path
         style="color:#000000;fill:#394d5c;stroke-width:0.794806;stroke-linecap:round;stroke-linejoin:round;-inkscape-stroke:none"
         d="m -54.207031,347.00586 c -0.557834,0 -0.992188,0.48914 -0.992188,1.05859 v 4.49805 c 0,0.56945 0.434351,1.05859 0.992188,1.05859 h 0.484375 c 0.423889,0 0.75,-0.37159 0.75,-0.79492 v -5.02539 c 0,-0.42332 -0.326111,-0.79492 -0.75,-0.79492 z"
         id="path486447" />
      <path
         style="color:#000000;fill:#b0c3d3;stroke-width:0.794806;stroke-linecap:round;stroke-linejoin:round;-inkscape-stroke:none"
         d="m -49.144531,348.72656 c -0.435245,0 -0.792969,0.35773 -0.792969,0.79297 v 1.58789 c 0,0.43524 0.357724,0.79297 0.792969,0.79297 h 0.375 a 0.26460996,0.26460996 0 0 0 0.265625,-0.26367 v -2.64649 a 0.26460996,0.26460996 0 0 0 -0.265625,-0.26367 z"
         id="path486459" />
      <path
         style="color:#000000;fill:#c8dae5;stroke-width:0.794806;stroke-linecap:round;stroke-linejoin:round;-inkscape-stroke:none"
         d="m -45.615234,349.12305 a 0.26460996,0.26460996 0 0 0 -0.265625,0.26367 v 1.85351 a 0.26460996,0.26460996 0 0 0 0.265625,0.26368 h 0.484375 c 0.423877,0 0.75,-0.36966 0.75,-0.79297 v -0.79492 c 0,-0.42332 -0.326129,-0.79297 -0.75,-0.79297 z"
         id="path486465" />
      <path
         id="path8846"
         style="color:#000000;fill:#b0c3d3;fill-opacity:1;stroke-width:0.794806;stroke-linecap:round;stroke-linejoin:round;-inkscape-stroke:none"
         d="m -45.615305,349.12291 a 0.26460996,0.26460996 0 0 0 -0.265615,0.26407 v 0.2651 h 0.220657 c 0.423871,0 0.750343,0.36991 0.750343,0.79323 v 0.79478 c 0,0.0826 -0.01254,0.16313 -0.03566,0.23927 0.329917,-0.089 0.564824,-0.40937 0.564824,-0.76843 v -0.79478 c 0,-0.42332 -0.326472,-0.79324 -0.750342,-0.79324 z" />
      <path
         id="path13863"
         style="color:#000000;fill:#97abba;fill-opacity:1;stroke-width:0.794806;stroke-linecap:round;stroke-linejoin:round;-inkscape-stroke:none"
         d="m -49.144289,348.72655 c -0.342977,0 -0.638165,0.22202 -0.747758,0.52917 h 0.06408 a 0.26460996,0.26460996 0 0 1 0.265615,0.26355 v 2.26033 c 0.12164,0.0762 0.265126,0.12092 0.418063,0.12092 h 0.374655 a 0.26460996,0.26460996 0 0 0 0.265615,-0.26355 v -2.64687 a 0.26460996,0.26460996 0 0 0 -0.265615,-0.26355 z" />
      <path
         style="color:#000000;fill:#394d5c;stroke-width:0.794806;stroke-linecap:round;stroke-linejoin:round;-inkscape-stroke:none"
         d="m -48.283203,347.00586 c -0.42389,0 -0.75,0.3716 -0.75,0.79492 v 5.02539 c 0,0.42333 0.32611,0.79492 0.75,0.79492 h 0.484375 c 0.557837,0 0.992187,-0.48914 0.992187,-1.05859 v -4.49805 c 0,-0.56945 -0.434354,-1.05859 -0.992187,-1.05859 z"
         id="path486471" />
      <path
         style="color:#000000;fill:#394d5c;stroke-width:0.794806;stroke-linecap:round;stroke-linejoin:round;-inkscape-stroke:none"
         d="m -46.585937,347.93164 c -0.42389,0 -0.75,0.3716 -0.75,0.79492 v 3.17383 c -10e-7,0.42333 0.32611,0.79492 0.75,0.79492 h 0.242187 c 0.557838,0 0.992187,-0.48914 0.992188,-1.05859 v -2.64649 c 0,-0.56945 -0.434355,-1.05859 -0.992188,-1.05859 z"
         id="path486477" />
      <path
         id="path7591"
         style="color:#000000;fill:#143441;fill-opacity:1;stroke-width:0.794806;stroke-linecap:round;stroke-linejoin:round;-inkscape-stroke:none"
         d="m -46.585789,347.93177 c -0.340519,0 -0.618215,0.23968 -0.714166,0.55345 0.0589,-0.0159 0.12083,-0.0243 0.184999,-0.0243 h 0.241848 c 0.557832,0 0.992188,0.48889 0.992188,1.05834 v 2.64686 c 0,0.16098 -0.03476,0.31534 -0.09715,0.45424 0.370798,-0.1578 0.626317,-0.54662 0.626319,-0.9834 v -2.64687 c 0,-0.56945 -0.434356,-1.05833 -0.992187,-1.05833 z" />
      <path
         id="path484865"
         style="color:#000000;fill:#ececec;fill-opacity:1;stroke-width:3.00399;stroke-linecap:round;stroke-linejoin:round;-inkscape-stroke:none"
         d="m -219.57422,235.99805 c -1.37119,0 -2.67834,0.27861 -3.86914,0.78125 l 0.43555,0.97656 c 1.38284,3.18731 1.43359,7.90391 1.43359,12.24609 0.002,0.55227 0.45164,0.99821 1.00391,0.9961 h 4 c 0.54922,-0.002 0.9939,-0.44688 0.99609,-0.9961 0,-5.16791 0.0322,-9.97249 -1.96502,-14.00408 z"
         transform="matrix(0.26458334,0,0,0.26458334,0,280.06666)"
         sodipodi:nodetypes="ccccccccc" />
      <path
         id="path485585"
         style="color:#000000;fill:#ececec;fill-opacity:1;stroke-width:3.00399;stroke-linecap:round;stroke-linejoin:round;-inkscape-stroke:none"
         d="m -179.61328,235.99805 -0.26172,0.59765 c -1.76368,3.83876 -1.69727,8.97483 -1.69727,13.40625 a 1.0001006,1.0001006 0 0 0 0.9961,0.9961 h 4.00195 a 1.0001006,1.0001006 0 0 0 1.00391,-0.9961 c 0,-4.34218 0.0488,-9.05878 1.43164,-12.24609 a 1.0001006,1.0001006 0 0 0 0.0371,-0.0977 c -0.0656,0.20637 0.003,-0.002 0.0664,-0.13281 0.0638,-0.13077 0.15055,-0.31152 0.25782,-0.52344 0.0316,-0.0624 0.0731,-0.1418 0.10742,-0.20898 -1.19966,-0.5115 -2.51843,-0.79492 -3.90235,-0.79492 z"
         transform="matrix(0.26458334,0,0,0.26458334,0,280.06666)" />
      <path
         style="color:#000000;fill:#b01d47;fill-opacity:1;stroke-width:0.794806;stroke-linecap:round;stroke-linejoin:round;-inkscape-stroke:none"
         d="m -53.332031,339.86328 c -0.435242,0 -0.794924,0.35773 -0.794922,0.79297 v 0.5293 c -2e-6,0.43524 0.359686,0.79297 0.794922,0.79297 h 1.585937 c 0.435236,0 0.794924,-0.35773 0.794922,-0.79297 v -0.5293 c 2e-6,-0.43524 -0.35968,-0.79297 -0.794922,-0.79297 z"
         id="path485361" />
      <path
         id="path4652"
         style="color:#000000;fill:#143441;fill-opacity:1;stroke-width:0.794806;stroke-linecap:round;stroke-linejoin:round;-inkscape-stroke:none"
         d="m -54.207028,347.00573 c -0.400145,0 -0.736705,0.25162 -0.895037,0.6041 0.112683,-0.048 0.235831,-0.0749 0.365871,-0.0749 h 0.484206 c 0.423891,0 0.750342,0.37198 0.750342,0.7953 v 5.02501 c 0,0.0833 -0.01267,0.16451 -0.03617,0.24133 0.330156,-0.0892 0.565341,-0.41125 0.565341,-0.7705 v -5.02501 c 0,-0.42332 -0.326451,-0.7953 -0.750342,-0.7953 z" />
      <path
         id="path6219"
         style="color:#000000;fill:#143441;fill-opacity:1;stroke-width:0.794806;stroke-linecap:round;stroke-linejoin:round;-inkscape-stroke:none"
         d="m -48.283358,347.00573 c -0.340641,0 -0.617794,0.24003 -0.713653,0.55397 0.05875,-0.0158 0.120489,-0.0248 0.184486,-0.0248 h 0.484725 c 0.557834,0 0.992187,0.4894 0.992187,1.05885 v 4.49791 c 0,0.16098 -0.03475,0.31533 -0.09715,0.45424 0.370507,-0.15795 0.626319,-0.54683 0.626319,-0.9834 v -4.49792 c 0,-0.56945 -0.434353,-1.05885 -0.992188,-1.05885 z" />
      <path
         id="path19037"
         style="color:#000000;fill:#cccccc;fill-opacity:1;stroke-width:3.00399;stroke-linecap:round;stroke-linejoin:round;-inkscape-stroke:none"
         d="m -219.57422,235.99805 c -1.34948,-0.0202 -2.71043,0.26115 -3.86715,0.78507 0.20018,0.42324 0.39643,0.90094 0.57032,1.3086 0.42545,-0.0556 0.85649,-0.0937 1.29687,-0.0937 h 4.84766 c -0.25955,-0.7511 -0.49418,-1.28796 -0.81268,-2.00018 z"
         transform="matrix(0.26458334,0,0,0.26458334,0,280.06666)"
         sodipodi:nodetypes="cccsccc" />
      <path
         id="path21501"
         style="color:#000000;fill:#cccccc;fill-opacity:1;stroke-width:3.00399;stroke-linecap:round;stroke-linejoin:round;-inkscape-stroke:none"
         d="m -211.57227,235.99805 v 2 h 6.00196 v -2 z"
         transform="matrix(0.26458334,0,0,0.26458334,0,280.06666)" />
      <path
         id="path22678"
         style="color:#000000;fill:#cccccc;fill-opacity:1;stroke-width:3.00399;stroke-linecap:round;stroke-linejoin:round;-inkscape-stroke:none"
         d="m -191.57422,235.99805 v 2 h 6 v -2 z"
         transform="matrix(0.26458334,0,0,0.26458334,0,280.06666)" />
      <path
         id="path23582"
         style="color:#000000;fill:#cccccc;fill-opacity:1;stroke-width:3.00399;stroke-linecap:round;stroke-linejoin:round;-inkscape-stroke:none"
         d="m -179.61328,235.99805 c -0.30882,0.65976 -0.5887,1.40209 -0.81055,2 h 0.85156 c 1.78005,0 3.44902,0.47285 4.89844,1.29297 0.31526,-1.12272 0.55998,-1.60901 1.0039,-2.49809 -2.06084,-0.88985 -3.1833,-0.79488 -5.94335,-0.79488 z"
         transform="matrix(0.26458334,0,0,0.26458334,0,280.06666)"
         sodipodi:nodetypes="ccsccc" />
    </g>
  </g>
</svg>
