<?xml version="1.0" encoding="UTF-8" standalone="no"?>
<!-- Created with Inkscape (http://www.inkscape.org/) -->

<svg
   width="90px"
   height="90px"
   viewBox="0 0 22.577778 22.577778"
   version="1.1"
   id="svg831"
   inkscape:version="1.1.1 (3bf5ae0d25, 2021-09-20)"
   sodipodi:docname="Export.svg"
   xmlns:inkscape="http://www.inkscape.org/namespaces/inkscape"
   xmlns:sodipodi="http://sodipodi.sourceforge.net/DTD/sodipodi-0.dtd"
   xmlns="http://www.w3.org/2000/svg"
   xmlns:svg="http://www.w3.org/2000/svg"
   xmlns:rdf="http://www.w3.org/1999/02/22-rdf-syntax-ns#"
   xmlns:cc="http://creativecommons.org/ns#"
   xmlns:dc="http://purl.org/dc/elements/1.1/">
  <defs
     id="defs825">
    <pattern
       id="EMFhbasepattern"
       patternUnits="userSpaceOnUse"
       width="6"
       height="6"
       x="0"
       y="0" />
    <pattern
       id="EMFhbasepattern-9"
       patternUnits="userSpaceOnUse"
       width="6"
       height="6"
       x="0"
       y="0" />
    <pattern
       id="EMFhbasepattern-0"
       patternUnits="userSpaceOnUse"
       width="6"
       height="6"
       x="0"
       y="0" />
    <pattern
       id="EMFhbasepattern-7"
       patternUnits="userSpaceOnUse"
       width="6"
       height="6"
       x="0"
       y="0" />
    <pattern
       id="EMFhbasepattern-2"
       patternUnits="userSpaceOnUse"
       width="6"
       height="6"
       x="0"
       y="0" />
    <pattern
       id="EMFhbasepattern-98"
       patternUnits="userSpaceOnUse"
       width="6"
       height="6"
       x="0"
       y="0" />
    <pattern
       id="EMFhbasepattern-6"
       patternUnits="userSpaceOnUse"
       width="6"
       height="6"
       x="0"
       y="0" />
    <pattern
       id="EMFhbasepattern-01"
       patternUnits="userSpaceOnUse"
       width="6"
       height="6"
       x="0"
       y="0" />
    <pattern
       id="EMFhbasepattern-07"
       patternUnits="userSpaceOnUse"
       width="6"
       height="6"
       x="0"
       y="0" />
    <pattern
       id="EMFhbasepattern-8"
       patternUnits="userSpaceOnUse"
       width="6"
       height="6"
       x="0"
       y="0" />
    <pattern
       id="EMFhbasepattern-4"
       patternUnits="userSpaceOnUse"
       width="6"
       height="6"
       x="0"
       y="0" />
    <pattern
       id="EMFhbasepattern-40"
       patternUnits="userSpaceOnUse"
       width="6"
       height="6"
       x="0"
       y="0" />
    <pattern
       id="EMFhbasepattern-08"
       patternUnits="userSpaceOnUse"
       width="6"
       height="6"
       x="0"
       y="0" />
    <pattern
       id="EMFhbasepattern-04"
       patternUnits="userSpaceOnUse"
       width="6"
       height="6"
       x="0"
       y="0" />
    <pattern
       id="EMFhbasepattern-014"
       patternUnits="userSpaceOnUse"
       width="6"
       height="6"
       x="0"
       y="0" />
    <pattern
       id="EMFhbasepattern-27"
       patternUnits="userSpaceOnUse"
       width="6"
       height="6"
       x="0"
       y="0" />
    <pattern
       id="EMFhbasepattern-09"
       patternUnits="userSpaceOnUse"
       width="6"
       height="6"
       x="0"
       y="0" />
    <pattern
       id="EMFhbasepattern-5"
       patternUnits="userSpaceOnUse"
       width="6"
       height="6"
       x="0"
       y="0" />
    <pattern
       id="EMFhbasepattern-018"
       patternUnits="userSpaceOnUse"
       width="6"
       height="6"
       x="0"
       y="0" />
  </defs>
  <sodipodi:namedview
     id="base"
     pagecolor="#ffffff"
     bordercolor="#666666"
     borderopacity="1.0"
     inkscape:pageopacity="0.0"
     inkscape:pageshadow="2"
     inkscape:zoom="6.5876941"
     inkscape:cx="28.082664"
     inkscape:cy="49.258511"
     inkscape:document-units="pt"
     inkscape:current-layer="layer1"
     showgrid="false"
     units="pt"
     inkscape:window-width="1920"
     inkscape:window-height="1001"
     inkscape:window-x="-9"
     inkscape:window-y="-9"
     inkscape:window-maximized="1"
     inkscape:pagecheckerboard="true"
     inkscape:showpageshadow="false"
     inkscape:object-paths="true"
     inkscape:snap-intersection-paths="true"
     inkscape:snap-smooth-nodes="true"
     inkscape:snap-midpoints="true"
     showguides="true"
     inkscape:snap-bbox="true"
     inkscape:bbox-nodes="true"
     inkscape:snap-nodes="false"
     inkscape:snap-global="true">
    <inkscape:grid
       type="xygrid"
       id="grid1378" />
    <sodipodi:guide
       position="0.97013831,21.607643"
       orientation="78.000048,0"
       id="guide1380"
       inkscape:locked="false" />
    <sodipodi:guide
       position="0.97013831,0.97013129"
       orientation="0,78.000005"
       id="guide1382"
       inkscape:locked="false" />
    <sodipodi:guide
       position="21.607639,0.97013129"
       orientation="-78.000048,0"
       id="guide1384"
       inkscape:locked="false" />
    <sodipodi:guide
       position="21.607639,21.607643"
       orientation="0,-78.000005"
       id="guide1386"
       inkscape:locked="false" />
  </sodipodi:namedview>
  <metadata
     id="metadata828">
    <rdf:RDF>
      <cc:Work
         rdf:about="">
        <dc:format>image/svg+xml</dc:format>
        <dc:type
           rdf:resource="http://purl.org/dc/dcmitype/StillImage" />
      </cc:Work>
    </rdf:RDF>
  </metadata>
  <g
     inkscape:label="Icon"
     inkscape:groupmode="layer"
     id="layer1"
     transform="translate(0,-274.42223)">
    <g
       id="g108927"
       style="display:inline;stroke-width:0.795524"
       transform="matrix(1.2570329,0,0,1.2570329,77.332012,-38.592597)">
      <path
         style="color:#000000;fill:#c8dae5;stroke-width:0.795524;stroke-linecap:round;stroke-linejoin:round;-inkscape-stroke:none"
         d="m -46.814119,254.77778 a 0.26460996,0.26460996 0 0 0 -0.263672,0.26172 l -0.01563,1.05859 a 0.26460996,0.26460996 0 0 0 0.265625,0.26758 h 0.675781 c 0.42389,0 0.75,-0.36964 0.75,-0.79297 0,-0.42333 -0.32611,-0.79492 -0.75,-0.79492 z"
         id="path373792" />
      <path
         id="path373794"
         style="color:#000000;fill:#b0c3d3;fill-opacity:1;stroke-width:0.795524;stroke-linecap:round;stroke-linejoin:round;-inkscape-stroke:none"
         d="m -46.814362,254.77785 a 0.26460996,0.26460996 0 0 0 -0.263549,0.26148 l -0.0155,1.05885 a 0.26460996,0.26460996 0 0 0 0.265615,0.26769 h 0.675928 c 0.04134,0 0.08166,-0.004 0.120923,-0.0103 l 0.01138,-0.78703 a 0.26460996,0.26460996 0 0 1 0.263549,-0.26148 h 0.31006 c -0.102537,-0.30183 -0.374185,-0.52917 -0.705901,-0.52917 z" />
      <path
         style="color:#000000;fill:#c8dae5;stroke-width:0.795524;stroke-linecap:round;stroke-linejoin:round;-inkscape-stroke:none"
         d="m -53.544588,254.51411 a 0.26460996,0.26460996 0 0 0 -0.08008,0.0117 l -0.851563,0.26368 a 0.26460996,0.26460996 0 0 0 -0.185547,0.2539 v 1.0586 a 0.26460996,0.26460996 0 0 0 0.185547,0.25195 l 0.851563,0.26562 a 0.26460996,0.26460996 0 0 0 0.08008,0.0117 h 0.851562 a 0.26460996,0.26460996 0 0 0 0.07813,-0.0117 l 0.853516,-0.26562 a 0.26460996,0.26460996 0 0 0 0.185547,-0.25195 v -1.0586 a 0.26460996,0.26460996 0 0 0 -0.185547,-0.2539 l -0.853516,-0.26368 a 0.26460996,0.26460996 0 0 0 -0.07813,-0.0117 z"
         id="path373796" />
      <path
         id="path373798"
         style="color:#000000;fill:#b0c3d3;fill-opacity:1;stroke-width:0.795524;stroke-linecap:round;stroke-linejoin:round;-inkscape-stroke:none"
         d="m -53.584751,254.52 c -0.02713,-3.3e-4 -0.891678,0.26977 -0.891678,0.26977 -0.110814,0.0347 -0.186051,0.13761 -0.185517,0.25373 v 0.007 c 0.01931,-0.005 0.03907,-0.007 0.05891,-0.007 0.68315,-0.0883 1.144143,0.0777 1.783352,0.27546 0.110818,0.0347 0.186056,0.13761 0.185518,0.25374 l 0.0096,1.0491 c 0.0064,-0.001 0.863259,-0.26762 0.863259,-0.26762 0.110267,-0.0345 0.185372,-0.13663 0.185517,-0.25218 v -1.05833 c 5.34e-4,-0.11612 -0.0747,-0.21902 -0.185517,-0.25373 l -0.892709,-0.26977 c -0.02529,-0.008 -0.9307,-1.7e-4 -0.9307,-1.7e-4 z"
         sodipodi:nodetypes="cccccccccccccc" />
      <path
         style="color:#000000;fill:#b0c3d3;stroke-width:0.795524;stroke-linecap:round;stroke-linejoin:round;-inkscape-stroke:none"
         d="m -55.302401,253.98481 a 0.26460996,0.26460996 0 0 0 -0.263672,0.26367 v 2.64648 a 0.26460996,0.26460996 0 0 0 0.263672,0.26563 h 0.375 c 0.435245,0 0.792969,-0.35968 0.792969,-0.79492 v -1.58789 c 0,-0.43524 -0.357724,-0.79297 -0.792969,-0.79297 z"
         id="path373800" />
      <path
         style="color:#000000;fill:#c8dae5;stroke-width:0.795524;stroke-linecap:round;stroke-linejoin:round;-inkscape-stroke:none"
         d="m -59.997713,254.77778 c -0.42389,0 -0.75,0.37159 -0.75,0.79492 0,0.42333 0.32611,0.79297 0.75,0.79297 h 0.572265 a 0.26460996,0.26460996 0 0 0 0.265625,-0.25977 l 0.01367,-1.05859 a 0.26460996,0.26460996 0 0 0 -0.263672,-0.26953 z"
         id="path373802" />
      <path
         id="path373804"
         style="color:#000000;fill:#b0c3d3;fill-opacity:1;stroke-width:0.795524;stroke-linecap:round;stroke-linejoin:round;-inkscape-stroke:none"
         d="m -60.01769,254.77785 c -0.322709,0.009 -0.585777,0.23336 -0.686263,0.52917 h 0.235646 c 0.14775,2.8e-4 0.266645,0.1215 0.264065,0.26923 l -0.0098,0.75551 c 0.06817,0.0218 0.140814,0.0341 0.216525,0.0341 h 0.572058 c 0.144724,5.7e-4 0.263059,-0.11523 0.265618,-0.25993 l 0.01395,-1.05885 c 0.0026,-0.14773 -0.116311,-0.26896 -0.264064,-0.26924 z"
         sodipodi:nodetypes="cccccsccccc" />
      <path
         style="color:#000000;fill:#3a4d5c;stroke-width:0.795524;stroke-linecap:round;stroke-linejoin:round;-inkscape-stroke:none"
         d="m -58.939119,254.38129 c -0.423872,0 -0.750001,0.37161 -0.75,0.79492 v 0.79297 c 0,0.42331 0.326122,0.79297 0.75,0.79297 h 0.484375 a 0.26460996,0.26460996 0 0 0 0.263671,-0.26367 v -1.85156 a 0.26460996,0.26460996 0 0 0 -0.263671,-0.26563 z"
         id="path373806" />
      <path
         id="path373808"
         style="color:#000000;fill:#143441;fill-opacity:1;stroke-width:0.795524;stroke-linecap:round;stroke-linejoin:round;-inkscape-stroke:none"
         d="m -58.95884,254.38149 c -0.322707,0.009 -0.58578,0.23335 -0.686263,0.52917 h 0.131775 c 0.146324,3e-4 0.264627,0.1193 0.264068,0.26562 v 1.51463 c 0.09387,0.0455 0.198472,0.0713 0.310057,0.0713 h 0.484209 c 0.145515,-3e-4 0.263484,-0.11804 0.264067,-0.26355 v -1.85157 c 5.59e-4,-0.14632 -0.117744,-0.26532 -0.264067,-0.26562 z"
         sodipodi:nodetypes="cccccsccccc" />
      <path
         id="path373810"
         style="color:#000000;fill:#97abba;fill-opacity:1;stroke-width:0.795524;stroke-linecap:round;stroke-linejoin:round;-inkscape-stroke:none"
         d="m -55.302214,253.98462 a 0.26460996,0.26460996 0 0 0 -0.264067,0.26407 v 2.64635 a 0.26460996,0.26460996 0 0 0 0.264067,0.26561 h 0.374653 c 0.153757,0 0.298074,-0.0452 0.420129,-0.12247 v -2.93161 c -0.122055,-0.0769 -0.266372,-0.12195 -0.420129,-0.12195 z" />
      <path
         id="path376497"
         style="color:#000000;fill:#97abba;fill-opacity:1;stroke-width:3.00671;stroke-linecap:round;stroke-linejoin:round;-inkscape-stroke:none"
         d="m -208.63477,-89.410156 c -0.49058,0 -0.94851,0.06755 -1.3789,0.1875 v 1.644531 a 1.0001006,1.0001006 0 0 0 0.99609,1.003906 h 1.41797 c 1.4346,0 2.64707,-1.03312 2.93359,-2.388672 -0.64733,-0.285395 -1.3642,-0.447265 -2.13086,-0.447265 z"
         transform="matrix(0.26458334,0,0,0.26458334,0,280.06666)" />
      <path
         style="color:#000000;fill:#3a4d5c;stroke-width:0.795524;stroke-linecap:round;stroke-linejoin:round;-inkscape-stroke:none"
         d="m -57.728182,253.19184 c -0.557833,0 -0.992187,0.48719 -0.992187,1.05664 v 2.64648 c 0,0.56945 0.43435,1.0586 0.992187,1.0586 h 0.244141 c 0.423889,0 0.748046,-0.36964 0.748047,-0.79297 v -3.17578 c 0,-0.42333 -0.324158,-0.79297 -0.748047,-0.79297 z"
         id="path373812" />
      <path
         style="color:#000000;fill:#3a4d5c;stroke-width:0.795524;stroke-linecap:round;stroke-linejoin:round;-inkscape-stroke:none"
         d="m -47.782869,254.38129 a 0.26460996,0.26460996 0 0 0 -0.265625,0.26563 v 1.85156 a 0.26460996,0.26460996 0 0 0 0.265625,0.26367 h 0.484375 c 0.423877,0 0.749999,-0.36966 0.75,-0.79297 v -0.79297 c 0,-0.42331 -0.326129,-0.79492 -0.75,-0.79492 z"
         id="path373814" />
      <path
         id="path373816"
         style="color:#000000;fill:#143441;fill-opacity:1;stroke-width:0.795524;stroke-linecap:round;stroke-linejoin:round;-inkscape-stroke:none"
         d="m -47.782777,254.38149 a 0.26460996,0.26460996 0 0 0 -0.265617,0.26562 v 1.85157 a 0.26460996,0.26460996 0 0 0 0.265617,0.26355 h 0.484209 c 0.110916,0 0.215069,-0.0253 0.308507,-0.0703 v -1.51567 a 0.26460996,0.26460996 0 0 1 0.265618,-0.26562 h 0.132292 c -0.102527,-0.30186 -0.374698,-0.52917 -0.706417,-0.52917 z" />
      <path
         style="color:#000000;fill:#3a4d5c;stroke-width:0.795524;stroke-linecap:round;stroke-linejoin:round;-inkscape-stroke:none"
         d="m -48.753573,253.19184 c -0.423889,0 -0.75,0.36964 -0.75,0.79297 v 3.17578 c 0,0.42333 0.326111,0.79297 0.75,0.79297 h 0.242188 c 0.557838,0 0.992187,-0.48915 0.992187,-1.0586 v -2.64648 c 0,-0.56945 -0.434354,-1.05664 -0.992187,-1.05664 z"
         id="path373818" />
      <path
         id="path376507"
         style="color:#000000;fill:#143441;fill-opacity:1;stroke-width:3.00671;stroke-linecap:round;stroke-linejoin:round;-inkscape-stroke:none"
         d="m -187.09961,-89.386716 v 2.8125 c 0,1.599988 1.23188,2.998047 2.83399,2.998047 h 0.91601 c 1.64653,0 3.00776,-1.127427 3.52539,-2.646484 -1.08555,-1.787551 -2.69914,-3.1875 -4.97461,-3.1875 -0.75511,-0.01627 -1.57867,0.0039 -2.30078,0.02344 z"
         transform="matrix(0.26458334,0,0,0.26458334,0,280.06666)"
         sodipodi:nodetypes="csssccc" />
      <path
         style="color:#000000;fill:#b0c3d3;stroke-width:0.795524;stroke-linecap:round;stroke-linejoin:round;-inkscape-stroke:none"
         d="m -51.312166,253.98481 c -0.435245,0 -0.792969,0.35773 -0.792969,0.79297 v 1.58789 c 0,0.43524 0.357724,0.79492 0.792969,0.79492 h 0.375 a 0.26460996,0.26460996 0 0 0 0.265625,-0.26563 v -2.64648 a 0.26460996,0.26460996 0 0 0 -0.265625,-0.26367 z"
         id="path373820" />
      <path
         id="path373822"
         style="color:#000000;fill:#143441;fill-opacity:1;stroke-width:0.795524;stroke-linecap:round;stroke-linejoin:round;-inkscape-stroke:none"
         d="m -48.753776,253.1919 c -0.423889,0 -0.749827,0.36939 -0.749827,0.79272 v 3.17603 c 0,0.42333 0.325938,0.79272 0.749827,0.79272 h 0.242361 c 0.03632,0 0.0723,-0.002 0.107487,-0.006 -0.02681,-0.0815 -0.04134,-0.16817 -0.04134,-0.25735 v -3.17604 c 0,-0.49675 0.381335,-0.79271 0.792716,-0.79271 -0.170056,-0.31294 -0.487082,-0.52917 -0.858864,-0.52917 z"
         sodipodi:nodetypes="csssscscccc" />
      <path
         id="path373824"
         style="color:#000000;fill:#97abba;fill-opacity:1;stroke-width:0.795524;stroke-linecap:round;stroke-linejoin:round;-inkscape-stroke:none"
         d="m -51.312279,253.98462 c -0.152937,0 -0.295907,0.0447 -0.417544,0.12092 v 2.93367 c 0.121637,0.0765 0.264607,0.12144 0.417544,0.12144 h 0.375172 a 0.26460996,0.26460996 0 0 0 0.265617,-0.26561 v -2.64635 a 0.26460996,0.26460996 0 0 0 -0.265617,-0.26407 z" />
      <path
         style="color:#000000;fill:#3a4d5c;stroke-width:0.795524;stroke-linecap:round;stroke-linejoin:round;-inkscape-stroke:none"
         d="m -50.450838,252.26411 c -0.42389,0 -0.75,0.37159 -0.75,0.79492 v 5.02734 c 0,0.42333 0.32611,0.79297 0.75,0.79297 h 0.484375 c 0.557837,0 0.992187,-0.48915 0.992187,-1.05859 v -4.49805 c 0,-0.56945 -0.434354,-1.05859 -0.992187,-1.05859 z"
         id="path373826" />
      <path
         id="path376502"
         style="color:#000000;fill:#143441;fill-opacity:1;stroke-width:3.00671;stroke-linecap:round;stroke-linejoin:round;-inkscape-stroke:none"
         d="m -186.62891,-89.410156 c -3.13363,0 -5.45507,2.679123 -5.45507,5.625 v 1.720703 c -0.36832,0.172237 -0.70623,0.338803 -1.01758,0.539062 0.49154,0.855127 1.37858,1.447266 2.42187,1.447266 h 1.83008 c 2.10836,0 3.75,-1.847786 3.75,-4 v -5.332031 z"
         transform="matrix(0.26458334,0,0,0.26458334,0,280.06666)" />
      <path
         id="path373828"
         style="color:#000000;fill:#143441;fill-opacity:1;stroke-width:0.795524;stroke-linecap:round;stroke-linejoin:round;-inkscape-stroke:none"
         d="m -57.728425,253.1919 c -0.371755,0 -0.688281,0.21627 -0.858345,0.52917 0.696051,0 0.792198,0.35754 0.792198,0.79272 v 3.17603 c 0,0.0892 -0.01415,0.17588 -0.04082,0.25735 0.03516,0.004 0.07068,0.006 0.106968,0.006 h 0.24443 c 0.423889,0 0.747758,-0.36939 0.747758,-0.79272 v -3.17603 c 0,-0.42333 -0.323869,-0.79272 -0.747758,-0.79272 z"
         sodipodi:nodetypes="cccscsssscc" />
      <path
         style="color:#000000;fill:#3a4d5c;stroke-width:0.795524;stroke-linecap:round;stroke-linejoin:round;-inkscape-stroke:none"
         d="m -56.273104,252.26411 c -0.557833,0 -0.992187,0.48914 -0.992187,1.05859 v 4.49805 c 0,0.56944 0.434349,1.05859 0.992187,1.05859 h 0.486328 c 0.42389,0 0.75,-0.36964 0.75,-0.79297 v -5.02734 c 0,-0.42333 -0.32611,-0.79492 -0.75,-0.79492 z"
         id="path373830" />
      <path
         id="path375437"
         style="color:#000000;fill:#143441;fill-opacity:1;stroke-width:3.00671;stroke-linecap:round;stroke-linejoin:round;-inkscape-stroke:none"
         d="m -208.63477,-89.410156 c -2.40851,0 -4.07551,1.566848 -5.16015,3.505859 h -0.33985 c -0.85355,0 -1.62035,0.190486 -2.30078,0.521485 v 1.304687 c 0,2.152214 1.64164,4 3.75,4 h 1.83789 c 1.60211,0 2.83399,-1.396106 2.83399,-2.996094 v -6.335937 z"
         transform="matrix(0.26458334,0,0,0.26458334,0,280.06666)" />
      <path
         style="color:#000000;fill:#c8dae5;stroke-width:0.795524;stroke-linecap:round;stroke-linejoin:round;-inkscape-stroke:none"
         d="m -45.742187,259.61719 a 0.26460996,0.26460996 0 0 0 -0.263672,0.26172 l -0.01563,1.05859 a 0.26460996,0.26460996 0 0 0 0.265625,0.26758 h 0.675781 c 0.42389,0 0.75,-0.36964 0.75,-0.79297 0,-0.42333 -0.32611,-0.79492 -0.75,-0.79492 z"
         id="path286514" />
      <path
         id="path291941"
         style="color:#000000;fill:#b0c3d3;fill-opacity:1;stroke-width:0.795524;stroke-linecap:round;stroke-linejoin:round;-inkscape-stroke:none"
         d="m -45.74243,259.61726 a 0.26460996,0.26460996 0 0 0 -0.263549,0.26148 l -0.0155,1.05885 a 0.26460996,0.26460996 0 0 0 0.265615,0.26769 h 0.675928 c 0.04134,0 0.08166,-0.004 0.120923,-0.0103 l 0.01138,-0.78703 a 0.26460996,0.26460996 0 0 1 0.263549,-0.26148 h 0.31006 c -0.102537,-0.30183 -0.374185,-0.52917 -0.705901,-0.52917 z" />
      <path
         style="color:#000000;fill:#c8dae5;stroke-width:0.795524;stroke-linecap:round;stroke-linejoin:round;-inkscape-stroke:none"
         d="m -52.472656,259.35352 a 0.26460996,0.26460996 0 0 0 -0.08008,0.0117 l -0.851563,0.26368 a 0.26460996,0.26460996 0 0 0 -0.185547,0.2539 v 1.0586 a 0.26460996,0.26460996 0 0 0 0.185547,0.25195 l 0.851563,0.26562 a 0.26460996,0.26460996 0 0 0 0.08008,0.0117 h 0.851562 a 0.26460996,0.26460996 0 0 0 0.07813,-0.0117 l 0.853516,-0.26562 a 0.26460996,0.26460996 0 0 0 0.185547,-0.25195 v -1.0586 a 0.26460996,0.26460996 0 0 0 -0.185547,-0.2539 l -0.853516,-0.26368 a 0.26460996,0.26460996 0 0 0 -0.07813,-0.0117 z"
         id="path285455" />
      <path
         id="path303756"
         style="color:#000000;fill:#b0c3d3;fill-opacity:1;stroke-width:0.795524;stroke-linecap:round;stroke-linejoin:round;-inkscape-stroke:none"
         d="m -52.472769,259.35371 a 0.26460996,0.26460996 0 0 0 -0.0801,0.0114 l -0.851628,0.26407 a 0.26460996,0.26460996 0 0 0 -0.185517,0.25373 v 0.007 a 0.26460996,0.26460996 0 0 1 0.05891,-0.007 h 0.851628 a 0.26460996,0.26460996 0 0 1 0.07803,0.0114 l 0.853694,0.26406 a 0.26460996,0.26460996 0 0 1 0.185518,0.25374 v 1.0511 a 0.26460996,0.26460996 0 0 0 0.01913,-0.004 l 0.853694,-0.26562 a 0.26460996,0.26460996 0 0 0 0.185517,-0.25218 v -1.05833 a 0.26460996,0.26460996 0 0 0 -0.185517,-0.25373 l -0.853694,-0.26407 a 0.26460996,0.26460996 0 0 0 -0.07803,-0.0114 z" />
      <path
         style="color:#000000;fill:#b0c3d3;stroke-width:0.795524;stroke-linecap:round;stroke-linejoin:round;-inkscape-stroke:none"
         d="m -54.230469,258.82422 a 0.26460996,0.26460996 0 0 0 -0.263672,0.26367 v 2.64648 A 0.26460996,0.26460996 0 0 0 -54.230469,262 h 0.375 c 0.435245,0 0.792969,-0.35968 0.792969,-0.79492 v -1.58789 c 0,-0.43524 -0.357724,-0.79297 -0.792969,-0.79297 z"
         id="path285263" />
      <path
         style="color:#000000;fill:#c8dae5;stroke-width:0.795524;stroke-linecap:round;stroke-linejoin:round;-inkscape-stroke:none"
         d="m -58.925781,259.61719 c -0.42389,0 -0.75,0.37159 -0.75,0.79492 0,0.42333 0.32611,0.79297 0.75,0.79297 h 0.572265 a 0.26460996,0.26460996 0 0 0 0.265625,-0.25977 l 0.01367,-1.05859 a 0.26460996,0.26460996 0 0 0 -0.263672,-0.26953 z"
         id="path284477" />
      <path
         id="path313587"
         style="color:#000000;fill:#b0c3d3;fill-opacity:1;stroke-width:0.795524;stroke-linecap:round;stroke-linejoin:round;-inkscape-stroke:none"
         d="m -58.945758,259.61726 c -0.322709,0.009 -0.585777,0.23336 -0.686263,0.52917 h 0.235646 a 0.26460996,0.26460996 0 0 1 0.264065,0.26923 l -0.0098,0.75551 c 0.06817,0.0218 0.140814,0.0341 0.216525,0.0341 h 0.572058 a 0.26460996,0.26460996 0 0 0 0.265618,-0.25993 l 0.01395,-1.05885 a 0.26460996,0.26460996 0 0 0 -0.264064,-0.26924 h -0.587563 c -0.0066,0 -0.01358,-1.8e-4 -0.02015,0 z" />
      <path
         style="color:#000000;fill:#3a4d5c;stroke-width:0.795524;stroke-linecap:round;stroke-linejoin:round;-inkscape-stroke:none"
         d="m -57.867187,259.2207 c -0.423872,0 -0.750001,0.37161 -0.75,0.79492 v 0.79297 c 0,0.42331 0.326122,0.79297 0.75,0.79297 h 0.484375 a 0.26460996,0.26460996 0 0 0 0.263671,-0.26367 v -1.85156 a 0.26460996,0.26460996 0 0 0 -0.263671,-0.26563 z"
         id="path284669" />
      <path
         id="path312410"
         style="color:#000000;fill:#143441;fill-opacity:1;stroke-width:0.795524;stroke-linecap:round;stroke-linejoin:round;-inkscape-stroke:none"
         d="m -57.886908,259.2209 c -0.322707,0.009 -0.58578,0.23335 -0.686263,0.52917 h 0.131775 a 0.26460996,0.26460996 0 0 1 0.264068,0.26562 v 1.51463 c 0.09387,0.0455 0.198472,0.0713 0.310057,0.0713 h 0.484209 a 0.26460996,0.26460996 0 0 0 0.264067,-0.26355 v -1.85157 a 0.26460996,0.26460996 0 0 0 -0.264067,-0.26562 h -0.484209 c -0.0066,0 -0.01307,-1.8e-4 -0.01963,0 z" />
      <path
         id="path307551"
         style="color:#000000;fill:#97abba;fill-opacity:1;stroke-width:0.795524;stroke-linecap:round;stroke-linejoin:round;-inkscape-stroke:none"
         d="m -54.230282,258.82403 a 0.26460996,0.26460996 0 0 0 -0.264067,0.26407 v 2.64635 a 0.26460996,0.26460996 0 0 0 0.264067,0.26561 h 0.374653 c 0.153757,0 0.298074,-0.0452 0.420129,-0.12247 v -2.93161 c -0.122055,-0.0769 -0.266372,-0.12195 -0.420129,-0.12195 z" />
      <path
         style="color:#000000;fill:#3a4d5c;stroke-width:0.795524;stroke-linecap:round;stroke-linejoin:round;-inkscape-stroke:none"
         d="m -56.65625,258.03125 c -0.557833,0 -0.992187,0.48719 -0.992187,1.05664 v 2.64648 c 0,0.56945 0.43435,1.0586 0.992187,1.0586 h 0.244141 c 0.423889,0 0.748046,-0.36964 0.748047,-0.79297 v -3.17578 c 0,-0.42333 -0.324158,-0.79297 -0.748047,-0.79297 z"
         id="path284861" />
      <path
         style="color:#000000;fill:#3a4d5c;stroke-width:0.795524;stroke-linecap:round;stroke-linejoin:round;-inkscape-stroke:none"
         d="m -46.710937,259.2207 a 0.26460996,0.26460996 0 0 0 -0.265625,0.26563 v 1.85156 a 0.26460996,0.26460996 0 0 0 0.265625,0.26367 h 0.484375 c 0.423877,0 0.749999,-0.36966 0.75,-0.79297 v -0.79297 c 0,-0.42331 -0.326129,-0.79492 -0.75,-0.79492 z"
         id="path286223" />
      <path
         id="path290725"
         style="color:#000000;fill:#143441;fill-opacity:1;stroke-width:0.795524;stroke-linecap:round;stroke-linejoin:round;-inkscape-stroke:none"
         d="m -46.710845,259.2209 a 0.26460996,0.26460996 0 0 0 -0.265617,0.26562 v 1.85157 a 0.26460996,0.26460996 0 0 0 0.265617,0.26355 h 0.484209 c 0.110916,0 0.215069,-0.0253 0.308507,-0.0703 v -1.51567 a 0.26460996,0.26460996 0 0 1 0.265618,-0.26562 h 0.132292 c -0.102527,-0.30186 -0.374698,-0.52917 -0.706417,-0.52917 z" />
      <path
         style="color:#000000;fill:#3a4d5c;stroke-width:0.795524;stroke-linecap:round;stroke-linejoin:round;-inkscape-stroke:none"
         d="m -47.681641,258.03125 c -0.423889,0 -0.75,0.36964 -0.75,0.79297 V 262 c 0,0.42333 0.326111,0.79297 0.75,0.79297 h 0.242188 c 0.557838,0 0.992187,-0.48915 0.992187,-1.0586 v -2.64648 c 0,-0.56945 -0.434354,-1.05664 -0.992187,-1.05664 z"
         id="path286031" />
      <path
         style="color:#000000;fill:#b0c3d3;stroke-width:0.795524;stroke-linecap:round;stroke-linejoin:round;-inkscape-stroke:none"
         d="m -50.240234,258.82422 c -0.435245,0 -0.792969,0.35773 -0.792969,0.79297 v 1.58789 c 0,0.43524 0.357724,0.79492 0.792969,0.79492 h 0.375 a 0.26460996,0.26460996 0 0 0 0.265625,-0.26563 v -2.64648 a 0.26460996,0.26460996 0 0 0 -0.265625,-0.26367 z"
         id="path285647" />
      <path
         id="path287801"
         style="color:#000000;fill:#143441;fill-opacity:1;stroke-width:0.795524;stroke-linecap:round;stroke-linejoin:round;-inkscape-stroke:none"
         d="m -47.681844,258.03131 c -0.423889,0 -0.749827,0.36939 -0.749827,0.79272 v 3.17603 c 0,0.42333 0.325938,0.79272 0.749827,0.79272 h 0.242361 c 0.03632,0 0.0723,-0.002 0.107487,-0.006 -0.02681,-0.0815 -0.04134,-0.16817 -0.04134,-0.25735 v -3.17604 c 0,-0.42333 0.325937,-0.79271 0.749826,-0.79271 h 0.04289 c -0.170056,-0.31294 -0.487082,-0.52917 -0.858864,-0.52917 z" />
      <path
         id="path293958"
         style="color:#000000;fill:#97abba;fill-opacity:1;stroke-width:0.795524;stroke-linecap:round;stroke-linejoin:round;-inkscape-stroke:none"
         d="m -50.240347,258.82403 c -0.152937,0 -0.295907,0.0447 -0.417544,0.12092 v 2.93367 c 0.121637,0.0765 0.264607,0.12144 0.417544,0.12144 h 0.375172 a 0.26460996,0.26460996 0 0 0 0.265617,-0.26561 v -2.64635 a 0.26460996,0.26460996 0 0 0 -0.265617,-0.26407 z" />
      <path
         style="color:#000000;fill:#3a4d5c;stroke-width:0.795524;stroke-linecap:round;stroke-linejoin:round;-inkscape-stroke:none"
         d="m -49.378906,257.10352 c -0.42389,0 -0.75,0.37159 -0.75,0.79492 v 5.02734 c 0,0.42333 0.32611,0.79297 0.75,0.79297 h 0.484375 c 0.557837,0 0.992187,-0.48915 0.992187,-1.05859 v -4.49805 c 0,-0.56945 -0.434354,-1.05859 -0.992187,-1.05859 z"
         id="path285839" />
      <path
         id="path310726"
         style="color:#000000;fill:#143441;fill-opacity:1;stroke-width:0.795524;stroke-linecap:round;stroke-linejoin:round;-inkscape-stroke:none"
         d="m -56.656493,258.03131 c -0.371755,0 -0.688281,0.21627 -0.858345,0.52917 h 0.04444 c 0.423889,0 0.747758,0.36939 0.747758,0.79272 v 3.17603 c 0,0.0892 -0.01415,0.17588 -0.04082,0.25735 0.03516,0.004 0.07068,0.006 0.106968,0.006 h 0.24443 c 0.423889,0 0.747758,-0.36939 0.747758,-0.79272 v -3.17603 c 0,-0.42333 -0.323869,-0.79272 -0.747758,-0.79272 z" />
      <path
         style="color:#000000;fill:#3a4d5c;stroke-width:0.795524;stroke-linecap:round;stroke-linejoin:round;-inkscape-stroke:none"
         d="m -55.201172,257.10352 c -0.557833,0 -0.992187,0.48914 -0.992187,1.05859 v 4.49805 c 0,0.56944 0.434349,1.05859 0.992187,1.05859 h 0.486328 c 0.42389,0 0.75,-0.36964 0.75,-0.79297 v -5.02734 c 0,-0.42333 -0.32611,-0.79492 -0.75,-0.79492 z"
         id="path285071" />
    </g>
  </g>
</svg>
